<?xml version="1.0" standalone="no"?>
<!DOCTYPE svg PUBLIC "-//W3C//DTD SVG 20010904//EN"
 "http://www.w3.org/TR/2001/REC-SVG-20010904/DTD/svg10.dtd">
<svg version="1.0" xmlns="http://www.w3.org/2000/svg"
 width="700.000000pt" height="700.000000pt" viewBox="0 0 700.000000 700.000000"
 preserveAspectRatio="xMidYMid meet">
<metadata>
Created by potrace 1.11, written by Peter Selinger 2001-2013
</metadata>
<g transform="translate(0.000000,700.000000) scale(0.100000,-0.100000)"
fill="#000000" stroke="none">
<path d="M952 6195 c-84 -26 -149 -88 -186 -175 -57 -139 -2 -287 133 -357
l63 -33 854 0 854 0 0 -2268 c0 -1577 3 -2286 11 -2328 41 -229 296 -319 472
-165 20 18 50 60 67 93 l30 61 0 2594 0 2593 -1127 -1 c-918 0 -1136 -3 -1171
-14z"/>
<path d="M3750 3617 l0 -2594 30 -61 c130 -258 488 -210 539 72 8 41 11 511
11 1488 l0 1428 452 0 c283 0 475 4 514 11 80 14 156 65 199 133 25 42 31 62
34 127 3 67 -1 85 -24 138 -31 69 -84 123 -154 155 -45 20 -60 21 -533 24
l-488 3 0 544 0 545 854 0 854 0 63 33 c75 38 122 95 145 174 38 130 -37 288
-165 347 -46 21 -48 21 -1188 24 l-1143 2 0 -2593z"/>
</g>
</svg>
