<?xml version="1.0" encoding="utf-8"?>
<!-- Generator: Adobe Illustrator 23.0.2, SVG Export Plug-In . SVG Version: 6.00 Build 0)  -->
<svg version="1.1" id="Layer_1" xmlns="http://www.w3.org/2000/svg" xmlns:xlink="http://www.w3.org/1999/xlink" x="0px" y="0px"
	 viewBox="0 0 1142 397" style="enable-background:new 0 0 1142 397;" xml:space="preserve">
<style type="text/css">
	.st0{fill:#FFFFFF;}
</style>
<g>
	<path class="st0" d="M1,398C1,265.67,1,133.33,1,1c380.67,0,761.33,0,1142,0c0,132.33,0,264.67,0,397C762.33,398,381.67,398,1,398z
		 M85.35,269.15c0.51-0.54,1.03-1.09,1.54-1.63c5.12,1.53,10.34,2.8,15.35,4.65c7.49,2.77,15.23,5.23,22.11,9.14
		c7.68,4.35,15.69,7.17,24.19,8.76c7.59,1.42,15.41,1.69,22.92,3.42c16.89,3.89,33.59,8.56,50.45,12.57
		c12.1,2.88,24.29,5.46,36.53,7.71c12.9,2.38,25.88,4.29,38.85,6.27c7.29,1.12,14.62,1.95,21.93,2.95
		c7.28,0.99,14.53,2.31,21.84,2.97c7.58,0.69,15.23,0.53,22.81,1.24c3.11,0.29,6.32,1.48,9.1,2.98c3.3,1.77,6.25,4.24,9.24,6.54
		c5.96,4.59,12.15,8.95,17.69,14.02c4.77,4.37,8.54,9.81,13.16,14.37c6.73,6.63,13.91,12.8,20.74,19.32
		c7.16,6.83,14.56,12.03,25.06,6.88c2.41-1.18,5.28-1.55,7.98-1.98c1.58-0.25,3.46-0.34,4.86,0.28c3.27,1.44,6.15,4.04,9.51,4.92
		c4.39,1.14,9.09,1.3,13.66,1.35c1.02,0.01,2.95-2.17,2.94-3.34c-0.02-4.17,2.64-3.97,5.52-4.59c2.33-0.5,4.67-1.95,6.47-3.57
		c1.87-1.69,2.75-4.53,4.69-6.08c3.14-2.5,5.56-4.91,4.64-9.36c-0.16-0.78,0.79-2.36,1.59-2.69c10.06-4.13,10.32-13.49,11.09-21.99
		c0.41-4.42-2.06-9.04-2.64-13.64c-0.36-2.84-1.51-3.46-4.08-3.75c-7.01-0.78-13.99-1.81-20.94-2.98c-1.14-0.19-2.08-1.57-3.11-2.39
		c1.12-0.78,2.14-1.96,3.39-2.28c10.41-2.74,20.84-5.44,31.33-7.9c3.33-0.78,7.14-1.82,10.2-0.93c5.87,1.72,11.59,4.31,16.96,7.29
		c12.03,6.67,23.63,14.12,35.73,20.66c12.69,6.86,25.65,13.26,38.7,19.42c9.46,4.46,18.95,9.56,29,11.89
		c10.51,2.43,21.41,4.03,32.56,3.65c9.78-0.33,16.34-5.82,22.55-11.61c4.54-4.23,7.79-9.52,14.45-11.2c2.4-0.6,4.44-3.08,6.38-4.97
		c4.94-4.82,12.83-6.02,15.94-13.05c6.99-0.75,12.33-4.93,17.63-8.89c4.21-3.15,7.96-6.95,11.75-10.63
		c5.93-5.75,11.23-12.29,17.73-17.27c6.36-4.88,13.06-9.04,18.3-15.41c5.76-7.01,7.72-14.17,4.68-22.76
		c-1.35-3.81-2.03-7.46-6.29-9.91c-4.15-2.39-7.31-6.54-10.72-10.1c-0.88-0.92-1.04-2.53-1.55-3.87c3.11-0.54,5.68-1.03,8.26-1.43
		c6.82-1.05,13.64-2.87,20.47-2.94c17.69-0.17,35.52-1.78,52.97,2.87c9.75,2.6,19.78,4.48,29.14,8.08
		c8.24,3.17,15.64,8.49,23.6,12.46c8.56,4.28,17.29,8.26,26.07,12.08c9.4,4.09,18.9,7.99,28.47,11.67
		c9.74,3.74,19.58,7.21,29.45,10.61c8.32,2.87,16.73,5.48,25.11,8.18c13.34,4.28,26.6,8.82,40.05,12.73
		c12.51,3.63,25.24,6.5,37.84,9.84c6.29,1.67,9.45-0.14,8.69-6.62c-0.87-7.39-2.87-14.68-4.79-21.9
		c-1.69-6.32-3.23-12.85-6.14-18.64c-5.49-10.92-12.51-20.85-22.26-28.64c-6.45-5.15-12.74-10.55-18.74-16.23
		c-3.39-3.21-5.88-7.34-9.06-10.8c-3.08-3.35-6.87-6.09-9.73-9.6c-3.26-4-2.53-12.75,0.62-16.18c1.28-1.4,2.39-2.98,3.42-4.58
		c3.69-5.7,7.13-11.57,11.02-17.13c3.38-4.83,7.34-9.25,10.86-13.99c1.85-2.48,3.34-5.23,4.95-7.89
		c3.45-5.71,6.95-11.38,10.26-17.17c1.32-2.31,1.93-5.04,3.33-7.3c2.27-3.65,5.02-7,7.38-10.6c1.15-1.76,1.51-4.13,2.88-5.63
		c7.5-8.18,14-17.02,17.28-27.69c0.91-2.96,0.83-7.3-0.78-9.67c-1.74-2.55-5.47-2.98-9.4-1.74c-6.5,2.04-13.35,3.02-20.11,4.14
		c-6.78,1.13-13.69,1.57-20.43,2.9c-6.55,1.3-13,3.19-19.41,5.1c-8.26,2.46-16.56,4.85-24.61,7.91
		c-10.34,3.93-20.42,8.56-30.67,12.74c-7.55,3.08-15.25,5.78-22.79,8.89c-7.73,3.18-15.27,6.85-23.04,9.94
		c-11.04,4.39-22.27,8.33-33.32,12.7c-12.41,4.9-24.79,9.91-37.06,15.16c-12.38,5.29-25.59,5.81-38.61,6.49
		c-17.73,0.92-35.03-2.87-52.09-7.47c-9.02-2.43-18.01-4.99-27.08-7.24c-12.87-3.19-25.81-6.07-38.69-9.22
		c-8.91-2.18-17.77-4.52-26.62-6.93c-1.22-0.33-2.22-1.46-3.33-2.22c1.15-0.88,2.17-2.16,3.47-2.57c7.62-2.45,15.42-4.41,22.95-7.11
		c5.38-1.93,12.53-2.94,13.6-9.74c1.1-7.01,1.56-14.42-2.36-21.25c-1.48-2.59-1.88-5.82-2.66-8.78c-0.46-1.72-0.21-3.81-1.11-5.2
		c-4.61-7.15-7.53-15.39-14.32-21.16c-2.77-2.35-4.87-5.61-6.87-8.72c-5.14-8.01-14.19-10.67-21.38-15.84
		c-3.86-2.78-8.5-4.47-12.53-7.05c-6.93-4.44-13.95-8.31-22.54-8.28c-6.16,0.02-12.32-0.35-18.48-0.52
		c-0.45-0.01-1.1,0.09-1.34,0.39c-2.74,3.53-6.8,2.95-10.5,4.02c-7.53,2.18-14.64,5.91-21.77,9.32c-5.87,2.81-11.45,6.24-17.28,9.14
		c-5.32,2.65-10.88,4.82-16.22,7.43c-9.41,4.61-18.6,9.72-28.14,14.03c-7.83,3.54-15.98,6.42-24.11,9.23
		c-6.46,2.24-13.05,5.27-19.69,5.57c-10.58,0.49-21.24-1.01-31.87-1.64c-1.99-0.12-4-0.04-6-0.07c-16.35-0.26-32.71-0.96-49.06-0.65
		c-12.69,0.24-25.35,2.35-38.04,2.52c-17.9,0.24-35.59,1.86-53.16,5.17c-20.79,3.92-41.62,7.65-62.34,11.94
		c-12.5,2.59-24.83,5.96-37.19,9.19c-21.58,5.63-43.17,11.22-64.64,17.21c-14.03,3.91-28.07,7.97-41.73,12.96
		c-11.2,4.1-21.88,9.63-32.74,14.64c-2.36,1.09-4.36,3-6.75,4c-10.63,4.46-21.39,8.58-31.99,13.1
		c-12.12,5.17-24.29,10.28-34.04,19.66c-2.76,2.66-5.92,5.39-9.42,6.69c-5.81,2.16-8.74,6.32-9.78,11.77
		c-0.74,3.88,0.57,8.19-0.33,12.01c-1.57,6.62,1.24,11.5,5.44,15.5c5.18,4.94,11.34,8.83,16.65,13.64
		c3.75,3.4,6.35,8.12,10.25,11.28c6.18,5.02,13.33,8.86,19.52,13.88c13.01,10.57,25.64,21.62,38.48,32.4
		c3.55,2.98,7.28,5.74,10.92,8.6c0.35-0.35,0.69-0.7,1.04-1.05C97.43,286.66,90.75,278.35,85.35,269.15z"/>
	<path d="M85.35,269.15c5.4,9.2,12.08,17.51,19.69,25.17c-0.35,0.35-0.69,0.7-1.04,1.05c-3.65-2.86-7.38-5.62-10.92-8.6
		c-12.84-10.79-25.46-21.83-38.48-32.4c-6.18-5.02-13.33-8.86-19.52-13.88c-3.9-3.17-6.5-7.88-10.25-11.28
		c-5.31-4.81-11.47-8.7-16.65-13.64c-4.2-4-7.01-8.88-5.44-15.5c0.91-3.81-0.41-8.12,0.33-12.01c1.04-5.45,3.98-9.61,9.78-11.77
		c3.5-1.3,6.65-4.03,9.42-6.69c9.76-9.38,21.92-14.49,34.04-19.66c10.6-4.52,21.37-8.64,31.99-13.1c2.39-1,4.38-2.91,6.75-4
		c10.86-5.02,21.54-10.55,32.74-14.64c13.67-5,27.7-9.05,41.73-12.96c21.48-5.99,43.07-11.58,64.64-17.21
		c12.36-3.22,24.69-6.6,37.19-9.19c20.72-4.29,41.55-8.02,62.34-11.94c17.56-3.31,35.25-4.93,53.16-5.17
		c12.69-0.17,25.35-2.28,38.04-2.52c16.34-0.31,32.7,0.39,49.06,0.65c2,0.03,4-0.04,6,0.07c10.63,0.62,21.3,2.12,31.87,1.64
		c6.64-0.31,13.23-3.34,19.69-5.57c8.13-2.82,16.28-5.69,24.11-9.23c9.54-4.31,18.73-9.42,28.14-14.03
		c5.34-2.62,10.89-4.79,16.22-7.43c5.83-2.9,11.41-6.32,17.28-9.14c7.13-3.42,14.24-7.14,21.77-9.32c3.69-1.07,7.76-0.49,10.5-4.02
		c0.23-0.3,0.88-0.4,1.34-0.39c6.16,0.17,12.32,0.54,18.48,0.52c8.59-0.03,15.61,3.84,22.54,8.28c4.03,2.58,8.66,4.27,12.53,7.05
		c7.19,5.18,16.23,7.84,21.38,15.84c2,3.11,4.1,6.37,6.87,8.72c6.79,5.77,9.71,14.01,14.32,21.16c0.9,1.39,0.66,3.48,1.11,5.2
		c0.78,2.97,1.18,6.2,2.66,8.78c3.91,6.82,3.46,14.24,2.36,21.25c-1.07,6.8-8.23,7.81-13.6,9.74c-7.53,2.71-15.32,4.66-22.95,7.11
		c-1.3,0.42-2.32,1.69-3.47,2.57c1.1,0.76,2.11,1.89,3.33,2.22c8.85,2.41,17.71,4.75,26.62,6.93c12.88,3.15,25.82,6.03,38.69,9.22
		c9.07,2.25,18.06,4.81,27.08,7.24c17.07,4.59,34.37,8.39,52.09,7.47c13.01-0.67,26.23-1.2,38.61-6.49
		c12.27-5.24,24.65-10.25,37.06-15.16c11.05-4.37,22.28-8.3,33.32-12.7c7.77-3.09,15.31-6.76,23.04-9.94
		c7.54-3.1,15.24-5.81,22.79-8.89c10.25-4.18,20.33-8.81,30.67-12.74c8.05-3.05,16.35-5.45,24.61-7.91
		c6.41-1.91,12.86-3.81,19.41-5.1c6.74-1.33,13.64-1.77,20.43-2.9c6.75-1.12,13.61-2.1,20.11-4.14c3.93-1.24,7.67-0.81,9.4,1.74
		c1.61,2.36,1.69,6.71,0.78,9.67c-3.28,10.67-9.78,19.52-17.28,27.69c-1.37,1.5-1.73,3.87-2.88,5.63c-2.36,3.6-5.11,6.95-7.38,10.6
		c-1.4,2.25-2.01,4.98-3.33,7.3c-3.31,5.79-6.81,11.47-10.26,17.17c-1.61,2.66-3.1,5.41-4.95,7.89c-3.53,4.74-7.48,9.16-10.86,13.99
		c-3.89,5.56-7.33,11.43-11.02,17.13c-1.03,1.6-2.14,3.18-3.42,4.58c-3.15,3.43-3.89,12.18-0.62,16.18c2.86,3.51,6.65,6.25,9.73,9.6
		c3.18,3.45,5.67,7.59,9.06,10.8c6,5.68,12.28,11.08,18.74,16.23c9.75,7.78,16.78,17.71,22.26,28.64
		c2.91,5.78,4.45,12.32,6.14,18.64c1.93,7.22,3.93,14.51,4.79,21.9c0.76,6.48-2.4,8.29-8.69,6.62c-12.6-3.35-25.33-6.21-37.84-9.84
		c-13.45-3.9-26.71-8.44-40.05-12.73c-8.38-2.69-16.79-5.31-25.11-8.18c-9.86-3.4-19.71-6.87-29.45-10.61
		c-9.57-3.68-19.06-7.58-28.47-11.67c-8.78-3.82-17.5-7.8-26.07-12.08c-7.96-3.98-15.36-9.3-23.6-12.46
		c-9.37-3.6-19.39-5.48-29.14-8.08c-17.45-4.65-35.27-3.04-52.97-2.87c-6.83,0.06-13.65,1.89-20.47,2.94
		c-2.58,0.4-5.14,0.89-8.26,1.43c0.51,1.35,0.67,2.96,1.55,3.87c3.41,3.56,6.57,7.71,10.72,10.1c4.26,2.46,4.94,6.11,6.29,9.91
		c3.04,8.58,1.08,15.75-4.68,22.76c-5.24,6.37-11.94,10.53-18.3,15.41c-6.5,4.99-11.8,11.52-17.73,17.27
		c-3.79,3.68-7.54,7.48-11.75,10.63c-5.3,3.96-10.65,8.14-17.63,8.89c-3.1,7.04-11,8.23-15.94,13.05c-1.94,1.89-3.98,4.37-6.38,4.97
		c-6.66,1.67-9.92,6.96-14.45,11.2c-6.21,5.79-12.76,11.28-22.55,11.61c-11.14,0.38-22.04-1.22-32.56-3.65
		c-10.05-2.32-19.54-7.42-29-11.89c-13.05-6.16-26.01-12.56-38.7-19.42c-12.1-6.54-23.7-13.99-35.73-20.66
		c-5.37-2.98-11.09-5.57-16.96-7.29c-3.06-0.89-6.87,0.15-10.2,0.93c-10.48,2.46-20.91,5.16-31.33,7.9
		c-1.24,0.33-2.26,1.5-3.39,2.28c1.03,0.83,1.97,2.2,3.11,2.39c6.95,1.17,13.94,2.2,20.94,2.98c2.57,0.29,3.71,0.91,4.08,3.75
		c0.59,4.6,3.05,9.22,2.64,13.64c-0.78,8.5-1.04,17.85-11.09,21.99c-0.8,0.33-1.75,1.91-1.59,2.69c0.92,4.46-1.49,6.86-4.64,9.36
		c-1.94,1.55-2.82,4.39-4.69,6.08c-1.8,1.62-4.15,3.07-6.47,3.57c-2.87,0.62-5.53,0.41-5.52,4.59c0,1.17-1.92,3.35-2.94,3.34
		c-4.57-0.05-9.28-0.21-13.66-1.35c-3.36-0.88-6.25-3.47-9.51-4.92c-1.4-0.62-3.28-0.53-4.86-0.28c-2.71,0.43-5.57,0.8-7.98,1.98
		c-10.5,5.15-17.9-0.06-25.06-6.88c-6.84-6.52-14.02-12.69-20.74-19.32c-4.62-4.55-8.39-10-13.16-14.37
		c-5.54-5.07-11.72-9.43-17.69-14.02c-2.99-2.3-5.94-4.77-9.24-6.54c-2.78-1.5-5.99-2.69-9.1-2.98c-7.57-0.71-15.23-0.55-22.81-1.24
		c-7.31-0.67-14.56-1.98-21.84-2.97c-7.31-1-14.64-1.83-21.93-2.95c-12.97-1.98-25.95-3.89-38.85-6.27
		c-12.23-2.26-24.42-4.83-36.53-7.71c-16.86-4.01-33.57-8.67-50.45-12.57c-7.5-1.73-15.33-2-22.92-3.42
		c-8.5-1.59-16.51-4.41-24.19-8.76c-6.89-3.91-14.63-6.37-22.11-9.14c-5-1.85-10.22-3.12-15.35-4.65
		C86.38,268.06,85.86,268.6,85.35,269.15z"/>
</g>
</svg>
