<?xml version="1.0" encoding="utf-8"?>
<!-- Generator: Adobe Illustrator 23.0.2, SVG Export Plug-In . SVG Version: 6.00 Build 0)  -->
<svg version="1.1" id="svg2" xmlns:svg="http://www.w3.org/2000/svg"
	 xmlns="http://www.w3.org/2000/svg" xmlns:xlink="http://www.w3.org/1999/xlink" x="0px" y="0px" viewBox="0 0 131.3 90.5"
	 style="enable-background:new 0 0 131.3 90.5;" xml:space="preserve">

<g id="Calque_1">
</g>
<g id="Calque_2">
</g>
<g id="Calque_3">
	<path id="path7" class="st0" d="M102.2,31.9c0.7,0.3,0.9,1.1,1.1,1.7c0.4,1.3-0.4,2.3-0.9,3.3c-0.4,0.8-1.2,0.8-2,0.4
		c-0.6-0.3-1.2-0.7-1.9-0.8c0.8,3.6,3.8,6.2,7.6,6.8c2,0.3,4,0.8,5.6,2.4c0.8,0.8,1.3,1.5,1.3,2.5c0.1,1.3-1.2,1.7-1.8,2.6
		c-0.2,0.4-0.8,0.4-0.8,1c1.1,0.1,2.2,0.2,3.3,0.8c1.7,0.9,2.2-0.5,2.7-1.7c0.7-0.4,1.6-0.3,2.4-0.6c1-0.1,2,0.1,2.8-0.6
		c0.2-0.2,0.5-0.2,0.8-0.1c1.7,0.5,3.6,0.7,5.2,1.7c0.5,0.8,0.9,1.7,1.4,2.5c-0.4,0.4-0.4,1.1-0.2,1.5c1.6,3-0.3,6.1,0.4,9.1
		c0.2,1-0.4,2.3-0.4,3.5c0,0.9-0.7,1.2-1.6,1.1c-0.8-0.6-0.9-1.4-0.6-2.3c0.6-2.2-0.4-4.2-1.1-6.2c-1.4-0.3-2.1-1.1-2.5-2.5
		c-0.5-1.9-2.9-2.3-4.3-1c-0.6,0.5-0.6,0.5-2.8,1c0.6,0.9,1.4,1.6,2.4,1.9c1.2,0.3,1.5,1,1.3,2.1c-0.5,0.9-1.3,1.4-2.4,1.4
		c-1.5-0.4-2.6-1.1-3.1-2.8c-0.3-0.9-1.2-1.3-2.2-1.3c-1.3,0-2.4-0.6-2.9-1.7c-0.9-1.9-2.6-2.4-4.3-2.9c-0.8-0.2-2.1-0.1-2.1-1.2
		c0-1.1,1.3-1.2,2.1-1.7c0.3-0.2,0.7-0.2,1-0.4c-0.3,0.2-0.7,0.1-0.9,0.3c-2.3,1.9-4.3,0.3-6.2-0.7c-0.7-0.4-1-1-0.9-1.7
		c0.3-0.6,0.7-1.2,1.4-1.6c1.8,1.2,3.8-0.2,5.1,0.5c-1.4-0.5-3.4,0.7-5.2-0.6c0,0-0.2,0.1-0.2,0.2c-0.1,0.2-0.3,0.4-0.4,0.6
		c-1.1,1.1-2.4,0.5-3.3-0.1c-0.7-0.5-1.1-1.5-0.4-2.5c-0.7,0.3-1.4,0.3-1.9-0.4c-0.2-0.3-0.2-0.6-0.4-0.8c-2.3-1.1-2.2-1.1-1.4-3.7
		c0.2-0.7,0.4-1.4,0.5-2.1c-1-0.9-1.2-2.1-1.5-3.3c-0.3-1.3,0.6-2.1,1.7-2.6c0.2-0.1,0.2,0.2,0.1,0c0-0.1-0.1,0-0.2,0
		c-0.9,0.3-1.3,1.1-1.7,1.9c-0.3,0.5-0.5,1.1-1.1,1.3c-0.7,0.4-1.3,1.2-2.2,0.6c-0.7-0.5-1.6-0.9-1.6-1.9c0.1-1.1,1-1.3,1.8-1.7
		c0.7-0.4,1.5-0.7,1.4-1.8c0-0.9,0.8-1,1.4-1.3c0.7-0.3,1.5-0.1,2.5-0.3c-0.9-0.6-1.7-0.9-2.4-1.3c-0.5-0.3-0.8-0.7-0.7-1.3
		c0.1-0.5,0.5-0.8,1-0.9c1.1-0.2,1.9-0.7,2.8-1.4c1-0.8,2.3-0.2,2.3,1c0.1,2,1.2,3.5,2.5,4.9c0.1,0.1,0.2,0.2,0.3,0.4
		c0.3,0.4,0.6,0.7,1,1C100.6,33.3,100.9,33.3,102.2,31.9L102.2,31.9z"/>
	<path id="path9" class="st0" d="M97.7,31.1c-1.7-1-2.4-2.6-2.8-4.5c-0.3-1.3-0.7-1.8-1.8-0.8c-0.8,0.8-1.9,1-3.2,1.2
		c1.2,1.2,2.8,1.3,4,2.1c0.3,0.2,0.9,0.3,0.8,0.8c-0.1,0.5-0.6,0.5-0.9,0.7c-0.2,0.1-0.3,0.1-0.5,0.1c-2.2-0.3-4.2-0.3-5.2,2.2
		c-0.1,0.2-0.4,0.2-0.6,0.3c-1.4-0.7-3.3-0.5-4.1-2.4c-0.3-0.6-1.4,0.1-1.9-0.6c-0.3-0.6-0.1-1.1,0.5-1.4c0.4-0.2,0.9-0.4,0.9-0.9
		c-0.4-1,0.1-2.1-0.2-3.2c0-0.2,0-0.3,0-0.5c0.1-0.8-0.6-0.7-1-1c-0.3-0.3-0.4-0.6-0.4-0.9c0-0.5,0.6-0.9,0.5-1.5
		c-0.2-0.8-0.2-1.5,0.7-2c0.8-0.4,1.5,0.1,2.1,0.6c0.2,0.2,0.5,0.3,0.3,0.2c-0.6-0.7-2.1-1.3-1.5-3.2c0.3-0.9-0.5-1.5-1.2-2
		c-0.5-0.4-1-0.7-1.1-1.4c-0.4-2.1-1.1-2.5-3.3-2.2c-0.7,0.1-1.3,0.3-1.7-0.5c-0.4-0.8,0.1-1.4,0.8-1.7C77.6,8.3,77.3,7.3,78,7
		c0.7-0.2,1.4-0.1,2.1-0.2c0.7-0.1,1.4,0.1,1.7,0.9c0.6,1.4,1.6,2,3.1,2.2c1.2,0.2,2.2,0.8,2.5,2.1c0.1,0.4,0.1,1,0.7,1
		c0.3,0,0.6-0.2,0.6-0.5c0.2-0.7-0.4-0.9-0.9-1.1c-1-0.5-2.4-0.9-1.1-2.5c0.3-0.4,0.7-0.3,1.1-0.4c2.3,0.2,3.3,2.1,4.7,3.5
		c0.4,0.4,0.8,1,1.1,1.5c0,0.8-0.6,1.2-1.1,1.7c-0.6,0.6-0.8,1.2,0.1,1.7c0.7,0.4,0.9,1,0.8,1.8c-0.1,1.1,0.3,1.9,1.3,2.4
		c0.8,0.4,0.9,0.9,1.1,1.8c0.2,1.7,0.6,3.3,1.5,4.8C97.9,28.6,99.3,29.7,97.7,31.1L97.7,31.1z"/>
	<path id="path11" class="st0" d="M112.5,48.5c-1.2-0.1-0.7-1.4-1.2-2c-1.4-1.5-3.2-2-5-2.2c-2.9-0.4-5-2.2-7.3-3.7
		c-0.4-0.2-0.6-0.9-0.7-1.4c-0.5-1.6-0.4-3.5-2.2-5c2-0.2,2.7,1.3,3.9,1.7c1.2,0.4,1.7,0.6,2.2-0.7c0.2-0.6,0.7-1.2,1.1-1.7
		c0.4,0.9,1,1.6,1.8,2.1c-0.1,1.3,0.3,2.5,1.3,3.3c2.3,1.8,4,4.2,7.1,4.9c1.6,0.4,3.2,1.3,4.6,2.2c1.2,0.7,2.4,1.3,3.8,1.8
		c2,0.7,3.7,2.2,5.7,3c0,0.1,0,0.2,0,0.3c-1.3-0.1-2.7-0.1-3.9-0.7c-0.5-0.3-1.3-0.5-1.6,0c-1,1.9-2.2,0.7-3.4,0.3
		c-0.1-0.1-0.3-0.2-0.4-0.3c-1.7-0.7-3.3-1.3-5.1-1.5C112.9,49.1,112.7,48.8,112.5,48.5z"/>
	<path id="path13" class="st0" d="M39.4,21.2c1.8-4,4.5-7.2,7.8-10c0.5-0.4,1-0.9,0.6-1.6c-0.3-0.6,0.1-1,0.6-1.2
		c0.8-0.3,1.2-1.1,1.6-1.7c0.4-0.2,0.7-0.6,1.2-0.7c1.1,0.3,2.1-0.7,3.1-0.2c0.2,0.2,0.3,0.5,0.3,0.7c-0.3,0.9-1,1.7-1.3,2.4
		c0.1-0.1,0.3-0.3,0.4-0.7c0.5-1.3,1.4-1.8,2.7-1.2c0.6,0.3,1.1,0.3,1.7,0.3c0.3,0.1,0.6,0.3,0.9,0.4c1.2,1.3,0.4,3.3-1.7,4.2
		c-1.3,0.5-2.4,1.2-3.2,2.4c-1.5,0.6-2.2,2-3.2,3.1c-2.3,1.2-4.6,2.5-6.8,3.7c-0.8-0.1-1.5,0-2.2,0.3C41.2,21.9,40.3,21.8,39.4,21.2
		z"/>
	<path id="path15" class="st0" d="M120.6,81.9c-2.1,2.1-4.8,3.2-7.5,4.4c-4.4,2-9.1,3.3-14,3.7c-3.8,0.2-7.6,0.4-11.3-0.2
		c-0.3-0.1-0.7,0-0.8-0.5c-0.1-0.4,0.1-0.8,0.5-1c0.7-0.4,1.6-0.5,2.4-0.5c2.9,0.6,5.8,0.3,8.7,0.4c1.8,0.1,3.7-0.8,5.6-1.3
		c1.1,0,1.9-0.5,2.8-1.1c0.4-0.4,0.8-0.3,1.3-0.3c1.6,0.1,2.9-0.5,3.7-1.9c1.3-0.6,2.4-1.5,3.8-2c2.7-1,4.6-2.9,6.7-4.8
		c0.5-0.4,0.7-1.1,1.6-0.8c0.4,0.3,0.5,0.7,0.6,1.2c0,0.3-0.1,0.5-0.3,0.8c-0.7,1.2-1.9,1.8-2.8,2.7
		C121.2,81.1,120.6,81.3,120.6,81.9L120.6,81.9z"/>
	<path id="path17" class="st0" d="M98.1,48.1c0.1-0.1,0.2-0.2,0.3-0.4c0.2-0.4,0.4-0.7,0.9-0.5c0.3,0.2,0.3,0.5,0,0.7
		c-0.6,0.3-0.9,0.8-1,1.5c-0.4,0.9-0.1,1.5,0.8,1.9c1.3,0.5,2.3,1.3,3.3,2.2c1,0.9,2.3,1.2,3.6,1.5c1,0.2,1.6,0.7,2.3,1.4
		c0.3,0.3,0.7,0.7,0.4,1.2c-0.3,0.6-0.9,0.5-1.4,0.3c-0.5-0.2-1.1-0.4-1.6-0.8C100.2,54.4,94.6,51.4,90,47c-3-2.9-5.6-6.1-6.9-10.2
		c-0.1-0.7,0.2-1.3,0.8-1.6c1.6-0.2,1.9,1.1,2.4,2.1c0.6,1.1,0.9,2.3,2.4,2.7c0.6,0.1,0.8,0.8,0.9,1.4c0.5,2.2,1.1,2.7,3.3,2.4
		c0.4,0,0.7,0,0.9,0.3c-0.2,0.2-0.4,0.5-0.7,0.7c-0.3,0.6-0.1,1,0.3,1.4c0.5,0.4,0.9,0.9,1.4,1.3C96,49,96.5,49.1,98.1,48.1
		L98.1,48.1z"/>
	<path id="path19" class="st0" d="M87.1,9.3c-0.3,1.3,0.8,1.2,1.5,1.4c0.8,0.2,1.7,0.2,1.7,1.4c-0.1,1.1-0.6,1.9-1.8,2.1
		c-0.4,0.1-0.8,0.1-1.2,0.1c-0.5,0-1,0.7-1.5,0.2c-0.5-0.5,0.4-0.7,0.5-1.1c0.2-0.7-0.9-2.4-1.6-2.5c-1.6-0.3-3.4-0.3-3.9-2.6
		c-0.3-1.4-1.7-0.6-2.6-0.8c-1.2,1.4-3,0.4-4.5,1c-1.2-0.4-2.4,0.7-3.6,0.2c-0.7-0.1-1.1-0.5-0.8-1.3c0.1-0.2,0.2-0.3,0.4-0.4
		c1.6-0.1,1.6-1.6,2.3-2.6c2.3,0.1,4.7-0.7,7,0.4c1.3,0.6,2.8,0.3,3.9,1.6c0.4,0.5,1.6,0,2.4,0.2c0.4,0.4,0.6,1.1,1.4,1.1
		c0.2,0.2,0.2,0.5,0,0.6c-0.9,0.4-0.2,0.3,0.1,0.3C87,8.8,87.1,9.1,87.1,9.3z"/>
	<path id="path21" class="st0" d="M44.1,20.6c2.2-1.3,4.4-2.6,6.7-4c1.3-0.7,2.2-1.7,3.5-2.5c1-0.6,1.8-1.4,3-1.4
		c2.8-1.1,5.8-1,8.8-1c1.5,0.4,3,0.5,4.6,0.4c0.2,0,0.4,0.1,0.5,0.2c1,1.7,2.7,2.4,4.4,3.1c0.2,0.1,0.3,0.2,0.5,0.3
		c1.4,1.4,2.5,2.9,3.5,4.6c0.3,0.5,0.5,0.9,0.1,1.4c-0.4,0.6-1,0.5-1.5,0.1c-3.9-7.3-13.5-11.4-22.3-6.7c-3.9,2.1-7.6,4.2-11.5,6.3
		c-0.6,0.3-1.2,0.5-1.8,0.8c-0.4,0.1-0.9,0.3-1.1-0.2c-0.3-0.5,0.3-0.7,0.6-0.9C42.7,20.8,43.3,20.6,44.1,20.6z"/>
	<path id="path23" class="st0" d="M105.8,57.2c0.8,0,1.5,0.7,2.6-0.1c-4.1-2.3-8.3-4-12.4-6.7c1.2,0,1.9-0.2,2.3-1
		c2.9,2.9,6.2,2.5,9.7,1.1c-1.5,1.2-3.5,1.3-4.6,3.1c1.8,0.7,3.5,1,5.3,1.2c0.8,0.1,1.7-0.5,2,0.6c0.3,1.1-1.1,0.6-1.5,1.3
		c0.9,0.5,1.4,1.8,2.8,1.7c1.8,1,2.3,2.6,2.5,4.5c0.1,1-0.4,1.5-1.4,1.1c-0.8-0.3-1.6-0.6-1.8-1.8c-0.3-1.5-1.9-1.9-2.9-2.9
		c-0.5-0.5-1.1-0.9-1.7-1.3C106.5,57.8,106,57.7,105.8,57.2z"/>
	<path id="path25" class="st0" d="M97.7,31.1c0.2-1-0.2-1.9-0.7-2.8c-1-1.8-2.1-3.5-2.2-5.6c0-0.5-0.3-0.7-0.7-1
		c-0.6-0.5-1.2-1-1.4-1.8c-0.3-1.3-0.4-2.5-2.2-2.9c-0.6-0.1-0.3-2,0.1-2.1c1.1-0.3,1.8-1.6,3-1.4c0.7,1.8,2.4,3,2.9,4.9
		c-0.3,0.4-0.2,0.7,0,1.1c1.3,2.5,1.8,5.2,2.7,7.8c0.4,1.2,0.5,2.5-0.3,3.7C98.5,31.4,98.1,31.3,97.7,31.1L97.7,31.1L97.7,31.1z"/>
	<path id="path27" class="st0" d="M35.6,90.4C26,90,17.4,87,10.6,79.9c2.3,1.5,4.5,3.3,7,4.8c0.4,0.3,0.9,0.1,1.3,0
		c1.2-0.3,2.4-0.3,3.6,0.4c1.6,0.9,3.4,0.5,5.1,0.6c0.2,0,0.4,0.1,0.6,0.1c1.6,0.3,3.3,0.1,4.9,0.6c0.7,1.4-1,1.4-1.3,2.3
		c-0.4,0.1-0.7,0-1-0.1c-0.9-0.2-1.7-0.7-2.7-0.5c1.1-0.2,2,0.4,3,0.6c1,0.2,2-0.1,2.9,0c0.7,0,1.3,0.4,1.8,0.9
		C35.9,89.8,35.8,90.1,35.6,90.4L35.6,90.4z"/>
	<path id="path29" class="st0" d="M90.3,89c-0.9,0.1-1.8-0.7-2.9,0.5c4,1.1,7.9,0.4,11.7,0.6c-3.5,0.7-7.1,0.5-10.6,0.1
		c-5.8-0.7-11.5-1.7-17.3-2.6c-1.5-0.8-3.2-0.3-4.8-0.3c-0.5,0-1,0.3-1.4-0.3c-0.1-1,0.6-1.2,1.3-1.2c4.7-0.2,9.4-0.4,14,1
		c-0.5-1-0.5-1.4,0-1.9c0.6-0.6,1.6-0.8,2.1-0.2c1.1,1.4,2.8,1.4,4.2,2c1,0.4,1.8,1.1,2.9,1.1C90.1,87.8,90.5,88.2,90.3,89L90.3,89z
		"/>
	<path id="path31" class="st0" d="M61.3,72.7c4.4-1,8.9-0.7,13.4-0.6c0.3,0.3,1.2-0.1,1.1,0.7c-0.1,0.9-0.9,0.8-1.6,1
		c-1.7-0.2-3.4-0.1-5.1-0.2c-1.6-0.3-3,0.1-4.5,0.7c-2,0.8-4.2,1.1-6.3,1.2c-1.6,0-2.6,1.2-3.8,1.9c-0.2,0.1-0.4,0.1-0.5,0.2
		c-2.5-0.2-5-0.2-6.8,2.1c-2.7,0.4-5.4,1.1-8.1,0.3c-0.7-1.1,0-1.3,0.8-1.5c3.7-0.7,7.2-1.7,10.8-2.8C54.2,74.6,57.9,74,61.3,72.7
		L61.3,72.7z"/>
	<path id="path33" class="st0" d="M127.6,50.9c-3.5-0.8-6.5-2.6-9.6-4.2c-1.9-1-3.7-2-5.8-2.3c-1.5-0.2-2.9-0.7-3.5-2.4
		c-0.3-0.7-1.2-1.2-1.9-1.7c-1-0.7-1.5-1.6-2.2-2.5c-0.6-0.9-0.4-1.5,0.5-2c1.4,3,3.6,5.1,6.7,6.3c0.1-0.3,0.4-0.4,0.7-0.5
		c0.3,0,0.7-0.1,0.8,0.1c1.4,1.6,3.7,1.9,5.3,3.3c1.2,1,2.5,1.4,3.9,1.4c0.7,0.4,1.5,0.8,1.6,1.7C124.9,49.5,126.8,49.6,127.6,50.9
		L127.6,50.9z"/>
	<path id="path35" class="st0" d="M65.2,86.8c2.4,0,4.8,0,7.5,0c-0.5,0.9-1,0.6-1.5,0.8c-7.5,0-15,1.3-22.4,2.3
		c-4.4,0.6-8.8,0.6-13.2,0.5c0-0.2,0-0.5,0-0.7c1.2-1.1,2.8-0.3,4-1c3.2,0.2,6.4-0.4,9.6-0.6c4.1-0.2,8-1.4,12-2
		C62.6,85.9,64.1,85.5,65.2,86.8z"/>
	<path id="path37" class="st0" d="M90.6,73.2c1.1,0.1,2.1,0.2,3.2,0.4c1,1.1,2.3,0.6,3.4,0.4c0.5-0.1,1-0.5,1.6-0.5
		c0.5,0.1,1,0.1,1.3,0.7c0.1,1.9-1.5,2.2-2.6,3c-0.3,0.1-0.6,0.2-0.9,0.3c-2.8-1.2-5.5,0.4-8.2,0.1c-0.7-0.1-1.3-0.1-1.6-0.7
		c-0.2-0.3-0.2-0.8-0.3-1.1c-0.2-0.4-0.7-0.5-1.1-0.5c-2-0.1-3.9,0-5.9-0.3c-0.6-0.1-1.1,0.3-1.6,0.6c-1.2,0.3-1.9-0.4-2.6-1.1
		c-0.1-0.2,0-0.4,0-0.6c1.8-1.4,4-1.1,5.9-0.8c2.2,0.3,4.5,0.4,6.7,0.9C88.9,73.9,89.8,73.9,90.6,73.2L90.6,73.2z"/>
	<path id="path39" class="st0" d="M85.4,6.7c-2.7-0.3-5.4-0.2-7.9-1.5c-0.3-0.2-0.8-0.2-1.2-0.1c-1.3,0.5-2.6,0.2-4-0.1
		c-1.1,0.5-0.9,2.1-2.1,2.4c-0.1,0-0.2,0-0.4,0c-2.6-0.1-2.9-0.6-2.1-3c1-0.6,2.3-0.6,3.2-1.9C71.4,1.8,73,1.6,74,2.6
		c2.7,0.5,5.5,0.6,7.7,2.4C82.8,5.8,84,6.5,85.4,6.7z"/>
	<path id="path41" class="st0" d="M61.3,72.7c0.2,0,0.4,0,0.5,0.1c0.4,0.5-0.2,0.4-0.3,0.4c-2,0.4-3.8,1-5.8,1.5
		C50.6,76.1,45.6,78,40.4,79c-0.5,0.1-1,0.2-1.3,0.8c-0.5,0.8-1.4,0.5-2.1,0.6c-2.4,0.3-4.7,0.4-7.1,0.3c-0.7,0-1.4,0-1.9-0.6
		c-0.4-1.3,0.6-1.2,1.3-1.1c4.4,0.3,8.8-0.3,13-1.4c0.2-0.1,0.5-0.1,0.7-0.2C49.1,75.8,55.1,73.7,61.3,72.7z"/>
	<path id="path43" class="st0" d="M117.1,62.6c0.9-0.1,1.5-0.6,2.1-1.1c0.2-0.3,0.5-0.5,0.6-0.8c0.3-1.2,1-1.5,2.1-1.1
		c0.9,0.4,1.3,1.9,0.6,2.7c-0.6,0.7-1.1,1.3-1.4,2.1c-0.5,1.1-1.5,0.9-2.5,0.9c-1.7-0.1-2.5,1.3-1.8,2.9c-0.7,1.9-1.8,2.7-3.8,2.7
		c-0.2,0-0.3-0.1-0.5-0.3c-0.1-0.2-0.1-0.3,0-0.5c0.1-0.4,0.2-0.9,0.7-0.9c1.7-0.1,1.5-1,0.5-1.6c-1.6-1-1.4-2.1-0.8-3.5
		c0.9-0.1,1.8,0.1,2.3-1.1C115.3,62.4,116.4,62.5,117.1,62.6L117.1,62.6z"/>
	<path id="path45" class="st0" d="M127.3,68.6c1.3-1.5,1-3.4,1-5.1c0-1.3-0.2-2.6-0.3-3.8c0-0.6,0.1-1.2,0.6-1.6
		c0.3-0.2,0.6-0.6,0.2-0.9c-1.7-1.3-0.4-2.3,0.2-3.4c0.4,1.3,0.7,2.6,1.3,3.8c0.5,1.1,0.7,2.1,0.5,3.2c-0.3,2-0.4,4.1-0.7,6.1
		c-0.3,1.8-0.9,3.5-1.6,5.2c-0.1,0.3-0.4,0.4-0.7,0.4c-1.6-0.1-1.2-1.5-1.4-2.4C126.2,69.4,126.3,68.6,127.3,68.6L127.3,68.6z"/>
	<path id="path47" class="st0" d="M98.7,30.8c-0.1-2.4-0.8-4.5-1.8-6.7c-0.4-1-0.4-2.1-0.6-3.2c-0.1-0.5-0.1-0.9-0.7-1
		c-0.4,0-1.1,0.5-1.1-0.3c-0.1-0.6,0.7-0.7,1.2-0.8c0.3-0.1,0.5-0.2,0.8-0.3c2.1,3,2.8,6.4,3.8,9.8c0.3,0.9,0.8,1.6,1.3,2.4
		c0.1,0.3,0.1,0.7,0.2,1c0.1,0.4,0,0.8-0.4,1c-0.4,0.2-0.9,0.2-1.3-0.1C99.6,32.1,98.8,31.7,98.7,30.8L98.7,30.8z"/>
	<path id="path49" class="st0" d="M78.2,22c0.9-0.2,1.1-0.6,0.6-1.5c-0.9-1.7-2.2-3.1-3.4-4.6c2-0.8,5,0.8,5.6,1.9
		c0.5,1.1,0.6,2.3,1.8,3.1c0.8,0.6-0.6,0.8-1,1.3c0.1,0.2,0.2,0.5,0.3,0.7c0.3,0.5,1.4,0.4,1.1,1.4l0,0c-0.5,0.8-1.1,1.5-1.4,2.4
		c-0.3,0.9-0.9,1.2-1.7,0.4C79.8,25.4,78.6,23.8,78.2,22z"/>
	<path id="path51" class="st0" d="M43,77.4c-2.6,1.4-5.5,1.5-8.3,1.7c-1.8,0.1-3.6,0.6-5.4,0.2c-0.5-0.1-0.9,0.1-1.2,0.6
		c-0.1,0.2-0.2,0.4-0.3,0.5c-0.6,0.5-1.3,0.3-2,0.2c-2.6-1.1-5.7-0.9-8.2-2.6c-1-0.6-2.3-0.8-3.5-1c-1.1-0.4-2.3-0.5-3-1.6
		c0.1-0.3,0.2-0.5,0.6-0.5c3.6,1.1,7.1,2.2,10.8,2.9c6.4,1.2,12.7,1.5,19-0.1C41.9,77.5,42.5,77.4,43,77.4L43,77.4z"/>
	<path id="path53" class="st0" d="M11.3,75.2c0.8,0.7,1.8,1,2.8,1.4c0.1,0.1,0.2,0.2,0.1,0.3L14,77c-0.9,0-1.7-0.6-2.9,0
		c-0.9,0.5-2.4-0.2-3.1-1.4c-1.7-2.6-3.7-5.1-5.7-7.6C1.4,66.9,0.3,66,0,64.4c2.1,2.3,4.5,4.4,6.6,6.7C8,72.6,9.6,74,11.3,75.2z"/>
	<path id="path55" class="st0" d="M127.6,72c1.3-3,2.3-6.1,2.4-9.4c0-0.7,0-1.4,0.8-1.8c0,0.2,0,0.4,0,0.7c0.3,2.1,0.2,4.3,0,6.4
		c-1,2.9-2.1,5.6-3.9,8.1c-0.8,0.5-1.1,1.5-1.9,2c-0.7,0.5-0.7,0.5-1.3-0.2c0.1-0.1,0.2-0.2,0.3-0.4c0.2-0.5,0.3-1.1,0.3-1.7
		c0.9-1.1,1.4-2.4,2.5-3.4C127.1,72.1,127.3,71.9,127.6,72z"/>
	<path id="path57" class="st0" d="M112.5,42.1c-0.2,0-0.5,0-0.7,0c-1.3-1.4-2.6-2.8-3.9-4.3c0.6-0.6,1,0,1.5,0.2
		c3.9,1.8,7.4,4.2,10.9,6.5c0.4,0.3,0.7,0.6,1.3,0.4c0.9,1,2.8,1.2,2.4,3.2c-0.6-0.4-1.2-0.7-1.8-1.1
		C119,45.6,115.7,43.9,112.5,42.1z"/>
	<path id="path59" class="st0" d="M117.1,62.6c-1.6,0.6-2.5,1.9-3.1,3.6c-0.7-0.7-0.2-1.8-1.2-2.1c-0.7-0.4-1.3-0.8-1.6-1.7
		c-0.4-1.4-1.9-1.9-2.9-2.9c-0.5-0.5-1.1-0.9-1.5-1.4c2,1.1,4,2.2,4.9,4.5c0.3,0.8,0.9,1,1.7,1.1c0-1.9-0.7-3.6-1.4-5.2
		c1.5,0.2,2.8,1,3.2,2.5C115.6,61.9,116.7,61.8,117.1,62.6L117.1,62.6z"/>
	<path id="path61" class="st0" d="M90.6,73.2c0.1,1.8-1.4,1.3-2.3,1.3c-1.6,0-3.3-0.2-4.8-0.6c-2.7-0.7-5.4-0.7-8,0
		c-0.5,0.1-1.2,0.3-1.1-0.7c0.3-0.1,0.8,0,0.9-0.4c0.1-0.3-0.3-0.4-0.5-0.6C80,72.5,85.3,72.8,90.6,73.2z"/>
	<path id="path63" class="st0" d="M69.4,0.1C74.7,0,79.5,1.7,84.1,4.4c-3.3-0.8-6.3-3.2-10-2.2c-0.1,0-0.2,0-0.3,0
		c-1.3-0.1-2.6-0.6-4-0.3c-1.8,0.5-3.6,0.1-5.4,0.7c-0.6,0.2-1-0.2-1.2-0.8c0.1-1.3,1.3-0.6,1.9-1.1C66.5,0.2,68.1,0.8,69.4,0.1z"/>
	<path id="path65" class="st0" d="M63.4,1.4c2.3,0.4,4.5-0.1,6.7-0.2c0.4,0.1,0.6,0.3,0.5,0.7C70,3.1,69,2.6,68.2,2.6
		c1.1,0.5,2.1-0.1,3-0.8c1-0.2,2-0.1,2.8,0.4l0,0c0,0.1,0,0.3-0.1,0.4c-1.3,0.1-2.6-0.2-3.3,1.5C70.3,4.9,69,4.6,68,4.7
		c-0.2,0.2-0.4,0.3-0.7,0.2c-0.6-0.8-1.2-1.2-2.2-0.8c-1.2,0.5-2.5,0.4-3.7-0.2c-0.4-0.8-1-1.6-0.1-2.4C62,1.4,62.7,0.9,63.4,1.4
		L63.4,1.4z"/>
	<path id="path67" class="st0" d="M84.3,35.7c-0.4,0.4-0.7,0.8-1.1,1.1c-1.8-2.4-1.7-5.5-2.8-8.1c-0.4-0.9,0-1.4,0.9-1.4
		c1.2,0,2.4,0.4,3.6,0.5c0.2,0,0.1,0.3,0.1,0.5c-1,0.7-2.5,0.5-3.1,1.8c0.7,0.3,1.9,0.1,1.7,1.5c0,0.1,0.1,0.2,0.2,0.3
		C85.4,33.4,85.4,33.4,84.3,35.7L84.3,35.7z"/>
	<path id="path69" class="st0" d="M121.7,44.9c-0.5,0.8-1,0.2-1.5-0.1c-3.7-2.1-7-4.6-10.9-6.4c-0.5-0.2-0.9-0.4-1.4-0.7
		c-0.5-0.5-0.9-1-1.4-1.5C111.9,38.6,117,41.4,121.7,44.9z"/>
	<path id="path71" class="st0" d="M18.7,82.7c-0.1,0.1-0.3,0.3-0.4,0.3c-0.5-0.1-0.4-0.5-0.2-0.8c0.2-0.4,0.2-0.8-0.2-1.1
		c-0.5-0.3-0.9-0.1-1.2,0.3c-0.3,0.3-0.7,0.7-1.2,0.2c-0.3-0.4,0-0.8,0.3-1.1c1-0.9,0.5-1.5-0.3-2.1c0-0.1,0-0.2,0.1-0.3
		c0.9-0.9,1.8-0.9,2.7,0.1c0.7,0.8,1.7,0.8,2.6,1.1c0.5,0.2,1.2,0.2,1.4,0.8C22.5,82.2,20.9,83.3,18.7,82.7L18.7,82.7z"/>
	<path id="path73" class="st0" d="M84.9,28.3c-1.3-0.5-2.8,0.9-4.1-0.4c-0.2-0.2-0.4,0.5-0.5,0.8c-0.3-0.5-0.3-0.9-0.3-1.5
		c0.3-0.1,0.8-0.2,0.8-0.5c-0.4-2.1,1.3-1.8,2.4-2.3c1,0.6,2.4,1.2,0.4,2.2C83.6,27.7,85.6,26.8,84.9,28.3z"/>
	<path id="path75" class="st0" d="M63.4,1.4c-0.7,0.2-1.4,0.3-2,0.5C61,2.3,60.9,2.9,60.3,3c-2.3,0.5-4.4,1.4-6.5,2.5
		c-0.2,0.1-0.5,0.1-0.8,0.1c-0.5-0.1-1-0.2-0.9-0.9c3.8-2.6,8-4.1,12.7-4.3c0.4-0.1,0.5,0.1,0.4,0.4C64.6,1,64,1.2,63.4,1.4z"/>
	<path id="path77" class="st0" d="M18.7,82.7c1.4-0.3,2.6-1,3.2-2.5c0.2-0.9,0.8-0.8,1.4-0.5c0.7,0.3,1.4,0.4,2.1,0.4
		c0.2,0,0.4,0.1,0.5,0.2c0.2,1.1-0.7,1.6-1.2,2.2c-0.9,0.9-2,1.8-3.3,2.2c-0.4,0-0.9,0-1.3-0.2C19.3,84,19.3,83.1,18.7,82.7
		L18.7,82.7z"/>
	<path id="path79" class="st0" d="M20.1,84.4c0.3-0.1,0.7-0.2,1-0.3c2.1-1,4.1,0.2,6.2,0.1c1,0,1.2,0.9,0.5,2.3
		c-2.2,0.1-4.4,0.1-6.4-1.2c-1.2-0.8-2.6,0.1-3.9-0.5C18.4,84.6,19.3,84.5,20.1,84.4z"/>
	<path id="path81" class="st0" d="M99.8,74.2c-0.4-0.1-0.7-0.2-1.1-0.4c-0.1-0.3-0.3-0.4-0.4-0.7c2.2-0.7,4.5-1.3,6.7-2
		c0.3,0.5,1.1,0.5,1,1.2c0,0.3-0.1,0.6-0.4,0.8c-1.6,0.9-3.3,1.3-5,1.7C100.4,74.8,100,74.6,99.8,74.2z"/>
	<path id="path83" class="st0" d="M98.7,30.8c0.5,0,1,0.2,1.4,0.6c1.2,1.4,1.4,0.4,1.5-0.7c0.2,0.4,0.4,0.8,0.6,1.1
		c0,0.9-0.1,1.6-1.2,1.8c-1,0.2-1.9,0.2-2.4-0.9c-0.3-0.6-0.6-1.1-0.9-1.7C98,31,98.4,30.9,98.7,30.8z"/>
	<path id="path85" class="st0" d="M123.8,77.7c0.8,0.4,1.3-0.2,1.8-0.7c0.4-0.4,0.7-0.9,1.4-1c-1.6,2.6-3.8,4.4-6.4,6
		c-0.8-0.4-0.3-0.9,0-1.2C121.7,79.7,122.7,78.7,123.8,77.7L123.8,77.7z"/>
	<path id="path87" class="st0" d="M46.8,9.9c-1.4,2.4-3.7,3.9-5.6,5.9c1.1-2.5,2.7-4.6,4.9-6.3C46.4,9.5,46.7,9.6,46.8,9.9z"/>
	<path id="path89" class="st0" d="M46.8,9.9c-0.2-0.1-0.5-0.2-0.7-0.3c1.6-2.1,3.7-3.7,6-4.9c0.4,0.1,0.8,0.3,1.2,0.4
		c0,1.3-1.4,0.9-1.8,1.7c-0.3,0.1-0.6,0.3-1,0.4C49.3,8.2,47.9,8.9,46.8,9.9L46.8,9.9z"/>
	<path id="path91" class="st0" d="M112.4,70c0,0.1,0.1,0.2,0.1,0.3c0.4,1.3-0.6,1.5-1.4,1.5c-0.6,0.1-1.2,0-1.9,0.1
		c-1.4-0.4-0.4-1.5-0.7-2.3c0.9-1,1.8-2.1,3.4-2c-0.1,0.9-1.5,0.6-1.2,1.5C111.1,69.7,111.8,69.9,112.4,70L112.4,70z"/>
	<path id="path93" class="st0" d="M44.1,20.6c-0.6,0.4-1.2,0.7-1.7,1.1c-0.7,0.5,0,0.6,0.3,0.7c-1.7,0.7-2.6,0.4-3.3-1.2
		c0.8-0.5,1.6-1,2.4-1.5c0.4,0.4-0.5,0.6-0.2,1.1C42.4,21,43.2,19.5,44.1,20.6z"/>
	<path id="path95" class="st0" d="M108.6,69.6c1.2,0.4,0.9,1,0.3,1.7c-0.7,1.5-1.8,1.7-3.1,0.8c-0.5-0.1-0.9-0.4-0.7-1
		C106.3,70.6,107.4,70.1,108.6,69.6z"/>
	<path id="path97" class="st0" d="M98.4,73.1c0.3,0.1,0.5,0.3,0.4,0.7c-1,0.3-1.8,1.1-2.9,1c-0.8,0-2.1,0.3-2-1.3
		C95.3,73.4,96.8,73.2,98.4,73.1z"/>
	<path id="path99" class="st0" d="M11.3,75.2c-0.9,0-1.6-0.2-2-1.1c-0.6-1.2-2.4-1.5-2.6-3.1c1.7,1.2,3.1,2.8,5,3.7
		C11.5,74.9,11.4,75.1,11.3,75.2z"/>
	<path id="path101" class="st0" d="M15.4,78.4c-0.8,0.1-1.6,0.4-2.4,0c-0.1-0.8,0.7-1,1-1.5l0.1-0.1C15.3,76.7,15.9,77,15.4,78.4
		C15.5,78.4,15.4,78.4,15.4,78.4z"/>
	<path id="path103" class="st0" d="M46.8,9.9c1-1.2,2-2.4,3.6-2.7c-0.3,1.4-1.8,1.5-2.5,2.4C47.5,9.7,47.2,9.8,46.8,9.9z"/>
	<path id="path105" class="st0" d="M65.2,0.8c-0.1-0.1-0.3-0.3-0.4-0.4c1.5-0.6,3.1-0.3,4.7-0.3C68.2,1.2,66.6,0.6,65.2,0.8z"/>
	<path id="path107" class="st0" d="M87.1,9.3c-1-0.3-1.1-0.8-0.4-1.5c0.5,0,0.8,0.3,1.1,0.7c0.2,0.2,0.7,0.6,0.6,0.7
		C88.1,9.8,87.6,9.1,87.1,9.3z"/>
	<path id="path109" class="st0" d="M130.9,67.9c0-2.1,0-4.3,0-6.4C131.4,63.6,131.4,65.7,130.9,67.9z"/>
	<path id="path111" class="st0" d="M116.4,68.2c-0.5-0.3-1.5-0.8-1-1.4c0.6-0.8,1.1-2.3,2.4-2.1c2.2,0.3,2.9-1.5,4-2.6
		c0.5-0.5,0.4-1.1-0.1-1.6c-0.6-0.6-0.9-0.1-1.3,0.4c-0.3,0.4-0.8,0.5-1.2,0.6c-1.4-0.7-2.8-1.5-4-2.6c-0.6-0.5-1.5-1-1.2-1.8
		c0.3-0.9,1.3-0.6,2-0.5c1.1,0.2,1.8,0,2.5-1.1c0.8-1.4,2.4-0.7,4.4,0.4c0.6,0.3,1.3,1,1.2,1.6c0,1.4,0.9,1.7,1.8,2.1
		c0.7,0.9,0.4,1.4-0.6,1.6c-0.3,0.1-0.6,0-0.8,0.1c-0.4,0.2-1.1,0.3-1.1,0.9c0,0.6,0.6,0.6,1,0.8c0.3,0.3,0.5,0.8,0.9,1
		c0.5,0.3,0.6,1,0.2,1.2c-1.5,0.8-1.2,3.3-3.4,3.5c-1.7,0.2-3.3,0.3-4.7-0.8c-0.1,0-0.3,0.1-0.5,0.2
		C116.6,68.4,116.5,68.3,116.4,68.2L116.4,68.2z"/>
	<path id="path113" class="st0" d="M84.3,35.7c-0.5-0.9-1.8-1.9,0.6-2.9c-2.1-0.1-1.6-2.3-3-2.7c1.1,0.2,1.9-0.4,2.8-0.8
		c0.4-0.2,0.8-0.2,1,0.3c0.1,0.3-0.1,0.5-0.3,0.7c-0.4,0.3-1.3,0.2-0.9,1c0.3,0.6,1.1,0.6,1.8,0.5c0.4-0.1,0.8-0.2,1.5-0.4
		c-0.6,0.8-0.6,1.4-0.2,2c-0.3,0.7-1.7,0.8-1.2,1.8c0.6,1.1,1.6,0.9,2.6,0.3c2,0.3,1.3,1.8,1.3,2.9c0.1,0.1,0.1,0.2,0.2,0.2
		c0.7,0.3,1.8-0.8,2,0.8c0,0.4-1.2,0.8,0.1,1.1c0.5,0.1,1.1,0.1,1,0.9c-0.1,0.6-0.6,0.8-1.2,0.8c-0.5,0-1.2-0.1-1.1,0.7
		c0,0.8,0.8,0.7,1.3,0.8c0.5,0.1,1.6-0.6,1.3,0.8c-3,1.8-4.3-1.1-6.2-2.4c0-0.6,0.8-0.2,1.1-0.8C86.1,40.2,85.3,37.9,84.3,35.7z"/>
	<path id="path115" class="st0" d="M124.1,63.6c-0.6,0-1.4,0.7-1.7-0.1c-0.4-0.8,0.3-1.4,0.9-2c0.8-0.8,2.3-0.5,2.6-1.8
		c0.5,0.2,1,0.4,0.9,0.9c-0.2,2.1,1.3,4,0.5,6.2c-0.2,0.5,0,1.2,0,1.7c-0.2,1.2-0.3,2.4,0.3,3.5c-0.1,0.1-0.2,0.2-0.3,0.4
		c-1.3,0.5-1.7,1.8-2.6,2.7c-0.4,0.4-0.7,1-1.4,0.6c-0.3-0.2-0.3-0.6-0.3-0.9c-0.1-0.9,0.2-1.6,0.8-2.1c0.4-0.3,0.1-0.3-0.1-0.4
		c-0.1-0.1-0.3-0.2-0.3-0.4c-0.2-0.3-0.4-0.6-0.3-1c0.4-1.1,0.8-2,1.8-2.7c1.3-0.8,1.1-2.2,1.1-3.4
		C125.9,63.9,124.5,64.4,124.1,63.6L124.1,63.6z"/>
	<path id="path117" class="st0" d="M88.5,38.9c-0.1-0.1-0.1-0.2-0.2-0.3c1.5-0.9,1-2.1,0.6-3.3c1-1.3,1.7-3,3.7-3.2
		c0.5,0,1.2-0.4,1.2,0.5c0,0.7-0.6,1.1-1.2,0.9c-1.1-0.3-1.8-0.1-2,1.3c1.5-0.3,1.9,0.1,1,1.4c-0.5,0.7-0.2,1.1,0.7,1.1
		c0.5,0,1.3-0.7,1.6,0c0.3,0.7-0.6,1-1,1.5c-0.1,0.1-0.3,0.2-0.4,0.3c-1-0.2-1.9,0.3-2.8,0.4C89.3,39.1,88.9,39.1,88.5,38.9z"/>
	<path id="path119" class="st0" d="M116.7,51.3c0.4,2.7-0.2,3.2-2.8,2.4c-1.3-0.4-2.4-1.2-3.9-0.4c-1.1,0.5-0.8-0.8-1-1.3
		c2-2.1,4.5-2,7-1.6C116.4,50.5,116.7,50.8,116.7,51.3L116.7,51.3z"/>
	<path id="path121" class="st0" d="M98.1,48.1c-1.1,1.2-2.2,1.4-3.4,0c-0.9-1-2.3-1-3.5-1.9c0.7-0.5,1.3-0.9,1.9-1.3
		c0.5,0.4,1,0.1,1.4-0.2c0.7-0.5,1.4-0.3,2.2-0.1c0.3,0.1,0.7,0.2,0.7,0.7c0,0.3-0.3,0.5-0.6,0.6c-0.6,0.4-2.1,0.1-1.6,1.5
		C95.7,48.6,96.9,48.4,98.1,48.1z"/>
	<path id="path123" class="st0" d="M99.4,48c-0.2-0.5-0.6-0.4-1-0.3c0-0.5-0.1-0.9-0.1-1.4c0.2-0.8,1-1.2,1.6-1.1
		c0.8,0.1,0.3,0.8,0.2,1.3c-0.1,0.3-0.2,0.7,0.1,0.9c0.3,0.2,0.7,0.1,1-0.1c0.9-0.8,1.6-0.6,2.5,0c1,0.7,2.1,0.1,3.4,0.2
		C104.9,49.2,101.2,49.3,99.4,48z"/>
	<path id="path125" class="st0" d="M116.7,51.3c-2.7-0.9-5.2-0.6-7.7,0.7c-0.4-0.1-0.8-0.4-0.2-0.6c1.7-0.5,2.6-1.9,3.7-3
		c0.3,0,0.7,0,1,0c1.7,0.9,3.7,0.9,5.3,2.2c0,0.1,0,0.2,0,0.3C118.2,51.4,117.4,51.3,116.7,51.3L116.7,51.3z"/>
	<path id="path127" class="st0" d="M81.8,22.3c0.2-0.3,0.5-0.6,0.9-1.3c-1.9,0.7-1.8-1.4-3-1.6c-0.2,0,0-0.5,0.2-0.8
		c0.2-0.3,0.3-0.8-0.2-0.9c-1.6-0.3-2.6-1.9-4.3-1.9l0,0c-0.5,0,0.2-0.7-0.7-0.8c-1.4-0.2-2.8-1.1-3.9-2h0c-0.9-0.6-2.4,0.1-2.7-1.5
		c0.4-0.9,1.3-0.9,2.1-1c0.3,0,0.6,0.1,0.8,0.2c1.7,1.4,3.7,1.8,5.9,1.4c0.2,0,0-0.2,0.1,0c0,0,0,0.1-0.2,0.1
		c-2.2,0.1-4.4,0-6.1-1.8c0-1.4,0.7-1.9,2-1.9c0.5,0,1.2,0.2,1.1-0.7c-0.1-0.7,0.4-0.6,0.8-0.5c1.1,0.4,2.3,0.3,3.5,0.2
		C78.2,8,78.5,8.7,77.7,9c-0.4,0.2-1.2,0.4-0.7,1c0.5,0.5,0.9-0.1,1.3-0.4c0.5-0.4,0.9-0.8,1.6-0.4c0,0.7-0.9,0.3-0.9,1
		c1.6,0.3,2.8,0.9,3.3,2.8c0.2,0.9,1.4,1.6,2.4,2.1c0.9,0.5,1.2,0.9,0.2,1.6c-0.8,0.5-0.7,0.8,0,1.4c0.7,0.6,1,1.6,1.8,2.3
		c0.4,0.3,0.6,1,0,1.4c-0.5,0.3-1.1,0-1.3-0.5c-0.3-0.7-0.8-1-1.4-1.2c-0.4-0.1-0.8-0.4-1.2-0.1c-0.5,0.5,0.2,0.6,0.3,1
		C83.6,22.1,82.6,22.1,81.8,22.3L81.8,22.3z"/>
	<path id="path129" class="st0" d="M83.2,24.4c-0.4-0.4-0.9-0.8-1.1-1.4c0.8,0.1,1.6-0.3,2.4,0.2C84.3,24,83.6,24.1,83.2,24.4z"/>
	<path id="path131" class="st0" d="M118.8,50.6c-1.5-0.1-2.8-1.4-4.5-1c-0.4,0.1-0.2-1-0.8-1.2C115.4,48.8,117.4,49.1,118.8,50.6z"
		/>
	<path id="path133" class="st0" d="M67.4,4.6c0.2,0,0.4,0,0.6,0.1c-0.2,1.5,0.9,2.1,1.8,2.8c-0.1,0.3,0.1,0.6,0.4,0.7
		c0.4,0.4,0.5,0.8,0.2,1.2C70,9.9,69.5,10,69.1,9.7c-0.5-0.3-0.9-0.3-1.5-0.3c-1.4-0.1-2.9,0.2-4.1-1c-0.7-0.6-1.8-0.9-2.9-0.2
		c-0.8,0.5-1.6-0.7-2.5,0c-0.8,0.5-1.5,1.2-2.1-0.3c-0.4-1-1.2-0.4-1.5,0.3c-0.6,1.2-1.8,1.6-2.9,2.2c-0.3,0.2-0.7,0.3-0.9-0.1
		c-0.2-0.4,0-0.8,0.4-0.8c1.7-0.2,2.1-1.8,3.2-2.6c1-1.2,2.5-1.6,3.9-1.9c1.1-0.2,2.2-0.2,3.3-0.6C62,4,62.7,3.9,63.3,4.2
		c0.9,0.4,1.7,0.4,2.5,0C66.4,3.8,67,4,67.4,4.6z"/>
	<path id="path135" class="st0" d="M58.2,8.2C60,7.3,61.9,6.5,64,7.5c0.6,0.3,1.2-0.5,1.8-0.1C66,8,65.2,8.1,65.3,8.6
		c0.1,0.1,0.2,0.2,0.3,0.1c1.1-0.6,2.2-0.1,3.3,0.1C69.7,9,70,9,70.2,8.2C71.5,8.1,72.7,8,74,7.8c0.7,0.2,1.3,0.4,2.3,0.6
		c-1.7,1.1-3.9,0.2-5.1,1.9c0,0.4-0.6,0.4-0.7,0.7c-0.7,0.2-1.4,0.4-2.1,0.7c-0.3,0.1-0.5,0.2-0.8,0.2c-0.9,0-1.8-0.1-2.7-0.1
		c-0.6,0-1.1-0.1-1.3-0.8c0.1-1.2,1.2-0.6,1.7-1C65.5,10,65.8,10,66,10c-0.4-0.1-0.8,0.3-1.2,0.3c-0.2,0,0.1,0-0.2,0
		c-2.1,0.3-3.9-0.4-5.3-2C58.9,8.2,58.5,8.2,58.2,8.2z"/>
	<path id="path137" class="st0" d="M51.4,6.7c0.2-1,1.3-1.1,1.8-1.7c2.3-2,5.3-2.4,8.1-3.2c0.1,0.6,2,0.8,0.3,1.7
		c-0.1,0.7-0.8,0.8-1.3,1c-2,0.7-4,1.3-6.1,1.5C53.3,6.3,52.4,6.5,51.4,6.7z"/>
	<path id="path139" class="st0" d="M59.3,8.2c0.9-0.1,1.7-0.1,2.3,0.8c0.3,0.4,0.8,0.6,1.2,0.4c0.9-0.4,1.4,0.2,2.1,0.5
		c0.4-0.2,0.7-0.3,0.7,0.4c-0.6,0.2-1.2,0.5-1.8,0.7c-0.6,1.2-1.8,0.9-2.7,1c-2.2,0.2-4.2,0.7-6.1,1.8c-0.3,0.1-0.6,0.4-1,0.1
		c0.1-1.2,1.2-2,1.8-2.1c2-0.1,2.2-2.2,3.5-2.9C59.3,8.8,59.3,8.5,59.3,8.2L59.3,8.2z"/>
	<path id="path141" class="st0" d="M54.3,6.1c2.5-0.8,4.9-1.7,7.4-2.5c1,0.2,2,0.3,3-0.3c0.7-0.5,1.5-0.4,2.3-0.2
		c1.2,0.3,1.3,0.8,0.4,1.5c-1.6,0.6-3.2,1.3-5,0.9c-0.1-0.4,0.7-0.3,0.5-1c-2.8,1-5.9,1.2-8.7,2.3C54.3,6.6,54.3,6.3,54.3,6.1z"/>
	<path id="path143" class="st0" d="M49.7,13.8c0.5-1.2,1.1-1.9,2-2.3c0.5-0.3,1.2-0.6,1.6,0c0.5,0.7-0.3,1-0.8,1.3
		C51.7,13.1,50.8,13.3,49.7,13.8z"/>
	<path id="path145" class="st0" d="M53.9,13.9c0.2-0.1,0.5-0.2,0.7-0.4c0.8-0.2,1.6-1,2.4,0c-2.3,0.7-4.1,2.4-6.3,3.2
		C51.7,15.6,52.6,14.5,53.9,13.9z"/>
	<path id="path147" class="st0" d="M123.5,71c0.1,0.2,0.2,0.5,0.3,0.7c-0.1,0.9-1.2,0.8-1.6,1.5c-0.3,0.6-1.3,0.1-1.4,0.9
		c0.2,0.5,0.6,0.5,1,0.5c1.3,0.3,1.6,0.8,0.7,1.9c-0.9,1.1-1.8,2.3-3.2,3c-1.2,0.6-2.5,1.5-3.4,2.6c-1.1,0.7-2.3,1.5-3.4,2.2
		c-1.8,0.7-3.6,1.4-5.3,2.4c-0.9,0.3-1.9,0.5-2.8,0.8c-0.8,0.3-1.5,0.3-1.7-0.8c-0.1-0.2,0.3-0.6,0.2-0.6c-2.1-0.1-4.2-0.3-6.2-0.3
		c-1.7,0-3.1-0.8-4.8-0.9c-0.8-0.2-1.5-0.5-2.3-0.3c-1.2,0.4-2.3-0.4-3.3-0.6c2.1,1.1,4.6,0.3,6.8,1.1c2.3,0.8,4.7,0.9,7.2,0.8
		c0.4,0,0.9-0.1,1.2,0.4c0.2,0.6,0,1-0.6,1.3c-0.8,0.3-1.6,0.7-2.5,0.8c-3.2,0-6.4-0.4-9.6-0.5c-0.8,0-1.3-1.3-2.3-0.6
		c-1.6-0.3-3.6,0.3-4.6-1.7c-0.2-0.3-0.5-0.2-0.8-0.1c-0.4,0.3-0.2,0.6,0.1,0.9c0.7,0.5,1.3,1,2,1.7c-2.6-0.6-5.1-0.9-7.7-1.3
		c-3.4-0.5-6.8-0.4-10.1,0.1c-5.2,0-10.3,1.3-15.4,2c-3.3,0.4-6.6,1-9.9,0.9c-1.4-1-3-0.5-4.5-0.3c-0.5,0.1-1,0.4-1.5,0.1
		c-1.1,0-2.1,0.1-3.1-0.4c-0.2-0.2-0.2-0.5,0-0.7c0.4,0,0.7,0,1.1,0c0.8-0.8,2-0.6,2.9-1.2c1.1-0.2,2.3-0.3,3.4-0.7
		c1.9,0.1,3.6-0.3,5.4-0.6c0.8-0.1,1.6-0.1,2.4,0.2c1.4,0.3,2.7,0.9,4.1,0.4c2.9,1,5.5-0.6,8.2-1.2c1.8-0.4,3.2-1.5,4.8-2.4
		c2.2-1.3,4.7-2.4,7.4-2.2c1.9,0.4,3.6,1.6,5.6,1.5c-1.9-0.5-3.7-1.6-5.8-1.8c-1-0.3-1.9,0.7-2.9,0.1c-1.1-1-0.8-1.8,0.4-2.1
		c0.7-0.2,0.8-0.6,0.9-1.1c0.2-0.5,0.7-0.8,1.1-0.6c1,0.5,1.6-0.2,2.4-0.4c1.3-0.1,2.5,0.1,3.3,1.3c0.5,0.7,1.1,0.7,1.8,0.6
		c2.3-0.6,4.2,0.5,6.1,1.4c0.8,0.3,1.4,0.5,2.1,0.1c0.9-0.5,1.6-0.2,2,0.7c0.9,1.9,2.4,2.6,4.6,2.3c0.7-0.1,1.4-0.3,2.2-0.2
		c0.4,0.1,0.9,0,1.1-0.3c0.7-1.1,2-1.6,2.8-2.5c2.3-0.4,4.4-1,6.5-2.1c1.4-0.8,3.3-0.2,4.9,0.6c0.6,0.8,1.2,0.8,1.9,0.2
		c0.9-0.7,1.9-1.3,3.1-1.4c0.4,0,0.7-0.3,0.7-0.8c0.1-0.6-0.4-0.8-0.7-1.1c-0.9-0.9-0.5-2.1,0.7-2.1c1.6,0,2.7-0.9,3.7-1.9
		C120.6,69.4,122.3,69.6,123.5,71L123.5,71z"/>
	<path id="path149" class="st0" d="M86.4,87.2c0.9-0.7,1.7-2,2.6,0c0,0.1,0.3,0.1,0.5,0.1c2.1-0.6,4.3,0.1,6.2,0.4
		c2.2,0.4,3.8-0.4,5.5-1.1c0.6-0.6,1.1-0.5,1.7,0c0.2,0.7,0.8,1,1.4,1c-3,1.5-6.3,1.1-9.5,1.4c-1.6,0.1-3.1-0.1-4.7,0.1
		C89.1,88.1,87.5,88.2,86.4,87.2L86.4,87.2z"/>
	<path id="path151" class="st0" d="M115.9,82.2c-0.2-0.3-0.9-0.6-0.2-0.9c1.2-0.4,2-1.2,2.8-2.2c0.3-0.4,1.2-0.4,1.8-0.6
		c0.1-0.8-1.5-0.2-1-1.1c0.3-0.6,0.9-1,1.8-0.6c0.7,0.3,0.9-0.5,1.4-1.1c-1.1-0.2-2.2,0.1-2.6-1.1c0.9-1.6,2.2-1.6,3.5-0.1
		c0,0.4,0,0.7,0,1.1c0.3,0.2,0.9,0.1,0.8,0.7c-0.1,0.1-0.3,0.1-0.4,0C121.5,78.8,119,80.9,115.9,82.2L115.9,82.2z"/>
	<path id="path153" class="st0" d="M107.2,86.8c1.6-1.3,3-2.8,5.3-2.4C111.1,86.1,109.1,86.3,107.2,86.8z"/>
	<path id="path155" class="st0" d="M123.8,76.3c0.1,0,0.2,0,0.3,0c0.3-0.5,0.6-0.8,1.1-0.3c0,0.7-0.4,1.1-1.1,1.4
		C124,77,123.9,76.6,123.8,76.3z"/>
	<path id="path157" class="st0" d="M70.1,7.5c0.5-1,0.2-2.7,2.1-2.4C72.1,6.4,72.2,7.9,70.1,7.5z"/>
	<path id="path159" class="st0" d="M57.1,13.5c-0.8,0-1.6,0-2.4,0c0.9-1.1,2.2-1.4,3.5-1.6c1.9-0.3,3.7-0.9,5.6-0.9
		c1.4,0.2,2.9,0.3,4.3,0.5c-0.2,1.2-0.9,1.2-1.9,1C63.1,12.2,60,12.3,57.1,13.5z"/>
	<path id="path161" class="st0" d="M70.9,13.1c0.8,0.3,1.6,0.6,2.5,0.9c0.7,0.2,1.4,1.7,1.9-0.2c0.1-0.5,2.4,0.2,2.6,0.7
		c0.2,0.7-0.3,0.7-0.7,0.6c-0.8-0.1-1.6-0.3-1.8,0.8C73.8,15.2,71.8,15,70.9,13.1z"/>
	<path id="path163" class="st0" d="M66.2,12.5c0.8-0.1,1.3-0.6,1.9-1c0.1,0.1,0.2,0.2,0.3,0.2c0.6,0.9,1.7,0.9,2.5,1.4
		C69.3,13,67.8,12.9,66.2,12.5z"/>
	<path id="path165" class="st0" d="M72.2,76.7c-0.7,1.7-2.1,0.3-3.2,0.6c-1.2,1.1-2.6,1.7-4.2,1.9c-1.6,0.1-2.9,0.9-4.1,1.7
		c-0.9,0.6-1.9,1.1-3,1.3c-1.3,0.3-2.5,0.8-3.6,1.7c-0.9,0.7-2.1,0.9-3.2,1.1c-2.6,0.6-4.9-0.2-7.3-0.6c-2.8-0.5-5.8,0-8.4,0.6
		c-2.4,0.6-4.7,0.9-7.1,1.3c-0.1,0-0.2,0-0.3,0c-0.1-1.2-0.6-1.7-2-1.4c-1.7,0.3-3.1-0.9-4.8-1c1.3-1.5,3.3-2.2,4.6-3.8
		c0.3-0.4,0.6-0.2,0.9,0c1.8,1.2,3.7,1.4,5.8,0.9c0.7-0.2,1.3,0.1,1.9,0.3c2.5,0.4,4.9,0.5,7.4,0.4c0.4,0,0.8,0,1.2,0.2
		c3.2,1.2,6.7,0.9,9.5-0.5c2.2-1.1,4.8-1.2,6.8-2.7c2-1.4,4.4-2,6.6-3.1c1.7-0.6,3.4-0.2,5.1,0C71.3,75.7,72.1,75.9,72.2,76.7z"/>
	<path id="path167" class="st0" d="M28.2,86.5c0.9-0.6,2-0.9,3.1-1.1c1-0.2,1.9-0.4,2.7-1.1c1.1-1,2.6-0.2,3.9-0.5
		c3.3-0.6,6.6-0.1,9.8,1c0.5,0.2,1-0.1,1.5-0.3c0.8-0.4,1.6-0.7,2.5-0.5c0.7,0.1,1.5-0.2,1.9-0.7c1-1.2,2.3-1.6,3.7-1.8
		c2-0.3,3.5-1.8,5.4-2.5c0.6-0.2,1.2-0.5,1.8-0.5c0.5,0.4,1.1,0.7,0.9,1.5c-0.2,0.6-0.5,1.1-1.3,1.1c-0.1,0-0.1,0,0,0.1
		c0.3,0.5,0.3,0.9-0.1,1.2c-0.9,0.3-1.7,0.7-2.4,1.5c-0.8,1-2.1,0.9-3.2,1.2c-2.1,0.4-3.9,1.9-6.3,1.7c-0.8,0-1.6-0.7-2.4,0.1
		c-1.2,0.5-2.5,1.3-3.6-0.3c-0.8-1.1-2-0.9-2.9-0.7c-1.8,0.4-3.8,0.3-5.5,1.1c-0.7,1.2-1.8,0.9-2.9,0.7c-0.5-0.4-1.3,0.1-1.7-0.7
		C31.4,87.1,29.8,86.6,28.2,86.5L28.2,86.5z"/>
	<path id="path169" class="st0" d="M33.8,89.4c1.1-0.2,2.2-0.7,3.4-0.9c1.2-0.2,2.1,0.1,2.6,1.1c-1.4,0-2.8,0-4.2,0.1
		C35,89.6,34.4,89.5,33.8,89.4L33.8,89.4z"/>
	<path id="path171" class="st0" d="M30.6,88.3c0,0.2,0,0.5,0,0.7c-1.7-0.3-3.5-0.4-5-1.3C27.3,87.8,29,87.2,30.6,88.3L30.6,88.3z"/>
	<path id="path173" class="st0" d="M33.1,86.9c0.7,0,1.4-0.2,1.7,0.7c-1,0.4-2,0.7-3.1,0.7C31.4,87,32.7,87.4,33.1,86.9L33.1,86.9z"
		/>
	<path id="path175" class="st0" d="M53.9,76.6c1.6-1.4,3.6-1.4,5.6-1.7c1.7-0.3,3.4-0.6,5-1.3c1.3-0.6,2.8-0.9,4.3-0.4
		c0.3,0.6-0.1,0.9-0.5,1.2c-1.5,0.6-3.2,0.6-4.7,1.1c-2.9,0.9-5.2,2.8-7.8,4.1c-1.5,0.7-3.2,1.1-4.8,1.3c-1.2,0.2-2.4-0.8-3.5-1.3
		c-0.1-0.2-0.2-0.3-0.2-0.5c-0.2-0.8,0.4-1,0.9-1.2C50,77.2,51.9,76.6,53.9,76.6c0.6,1.2-0.5,1.3-1.1,1.6c0.8-0.2,1.7-0.5,2.8-1
		C54.6,77.5,54.2,77.1,53.9,76.6L53.9,76.6z"/>
	<path id="path177" class="st0" d="M33.9,82c-1.9-0.4-3.9-0.4-5.7,0c-1.8,0.3-2.4,0-2.4-1.7c0,0,0-0.1,0-0.1c-0.3-0.1-0.2-0.2,0-0.3
		c0.7,0,1.3,0,2,0c2,1.1,4.1,0.7,6.1,0.5c1.1-0.1,2.1-0.3,3.2-0.5c0.7,0,1.4-0.1,2-0.1c2.6-1.2,5.5,0.1,8.1-0.8
		c0,0.1-0.1,0.1-0.1,0.2c0.3,1.1-0.5,1.3-1.2,1.4c-1,0.1-2,0.1-2.9,0c-1.3-0.1-2.5,0-3.6,0.8c-0.1,0.1-0.3,0.2-0.5,0.3
		c-0.1,0-0.3,0.1-0.3,0c-1.5-0.9-3-0.3-4.4,0.2C34,81.9,34,81.9,33.9,82L33.9,82z"/>
	<path id="path179" class="st0" d="M68,73.8c0.2-0.2,0.5-0.5,0.7-0.7c1.9,0,3.8,0,5.6,0c0.4,0.2,0.7,0.4,1.1,0.7c0,0.1,0,0.2,0,0.3
		c-0.1,0.5-0.4,0.8-0.8,0.8c-1.6-0.1-3.1,0.5-4.7,0.4C69,75.2,68.5,74.5,68,73.8z"/>
	<path id="path181" class="st0" d="M112.5,42.1c3.4,1.4,6.8,2.8,9.9,4.9c-2.6,0.2-4.3-1.9-6.5-2.8C114.6,43.8,113.3,43.3,112.5,42.1
		z"/>
	<path id="path183" class="st0" d="M98.3,79.8c-0.3,1-3.6,4.4-4.2,4c-2-1.4-4.3,0.1-6.2-1.1c-0.9-0.6-2.1-1-1.2-2.8
		c-2.9,1.9-4.8,0.4-6.6-1.1c-1-0.8-1.9,0-2.9-0.1c-0.3-0.3-0.3-0.6-0.2-0.9c0.9-0.6,1.6-1.4,2.1-2.3c0.5-0.5,1.1-0.8,1.9-0.6
		c1.8,0.3,3.8-0.1,5.6,0.5c0.3,0.1,0.6,0.1,0.8-0.1c0.3,0,0.9-0.1,0.8,0.3c-0.1,0.6-0.9,0.4-1.2,0.8c-0.2,1.5,1.4,0.6,1.8,1.3
		c1.2,1.6,2.7,2.1,4.6,1.7c1.1-0.2,2.2,0,3.3-0.2C97.3,79.3,98.1,79.1,98.3,79.8L98.3,79.8z"/>
	<path id="path185" class="st0" d="M96.6,79.4c-1.5,1-6.4,0.9-7.8,0c-0.7-0.5-0.4-1.1-0.3-1.7c0.7-1,1.7-0.5,2.6-0.4
		c0.9,0,1.9,0.1,2.7-0.5c0.9-0.7,1.9,0,2.8-0.5c0.2,0,0.5,0,0.7,0c1-0.1,2-0.6,3-0.6c0.8,0.6,1.7,0,2.5,0.2c0.6,0.1,1.3-0.2,1.5,0.6
		c0.3,0.8-0.4,1-0.9,1.4C101.5,79.6,99,79.5,96.6,79.4L96.6,79.4z"/>
	<path id="path187" class="st0" d="M100.1,76.3c-0.9,0.9-1.9,0.2-2.8,0c0.8-0.7,1.7-1.4,2.5-2.1c2.2-0.2,4.1-1.1,6-2.1
		c1-0.3,2.1-0.5,3.1-0.8c1.1-0.6,2.7,0.2,3.6-1.1c0.1,0,0.2,0,0.3,0c0.3,0.1,0.7,0.2,1,0.2c0.3,0,0.6,0.2,0.6,0.5
		c0,0.4-0.2,0.7-0.5,0.8c-3.1,0.7-5.7,2.4-8.5,3.6c-1.1,0.2-2.3,0.6-3.5,0.4C101.4,76,100.9,76.8,100.1,76.3L100.1,76.3z"/>
	<path id="path189" class="st0" d="M79.3,75.9c0.3,0.3,1,0.4,1,0.9c0,0.5-0.7,0.5-1.1,0.7c-0.5,0.2-1.1,0.4-1.6,0.5
		c-1.2,0.1-2.2-0.4-2.9-1.4c-0.4-0.6-1.1-0.4-1.7-0.5c-1.1-0.2-2.5,0-3.1-1.5c0-0.2,0.1-0.3,0.2-0.5c1.8,0.3,3.5,0.5,5.3-0.1
		c0.8,0.3,1.6,0.6,2.4,0.8C78.6,74.9,79.5,74.7,79.3,75.9L79.3,75.9z"/>
	<path id="path191" class="st0" d="M96.6,76.3c-0.8,0.4-1.7,0.6-2.4,1.3c-0.8,0.8-2,1.4-3.2,0.2c-0.7-0.7-1.6-0.5-2.5-0.1
		c-0.3-0.7-2.7,0.8-1.4-1.4c1.1,0.9,2.5,0.9,3.6,0.4C92.7,75.9,94.6,75.9,96.6,76.3z"/>
	<path id="path193" class="st0" d="M79.3,75.9c-0.5-0.3-1-0.6-1.4-1c0.3-0.3,0.6-0.7,1-0.7c2.8,0.4,5.8-0.3,8.6,1
		c-1.3,1.3-2.7,0.3-4,0.2C82,75.4,80.7,75.4,79.3,75.9L79.3,75.9z"/>
	<path id="path195" class="st0" d="M37,79.9c-2.3,0.8-4.7,1.1-7.2,1c-0.9-0.1-1.6-0.3-2.1-1c0.1,0,0.3-0.1,0.4-0.1
		c1.9,0.7,3.9,0.4,5.9,0.2C35.1,79.9,36,79.7,37,79.9L37,79.9z"/>
	<path id="path197" class="st0" d="M105.1,74.9c1.8-1.1,3.9-1.7,5.6-3.1c0.9-0.7,2-0.2,3-0.6c0.1-0.7-0.6-0.6-0.8-0.9
		c1.6,0.1,2.5-1.2,3.5-2.1c0.1,0,0.2,0,0.3,0c1,0.5,1.2,1.5,1.3,2.3c0.2,1-0.6,1.8-1.5,1.8c-1.7,0-2.9,1-4.2,1.8
		c-1.7,1.1-3.8,1.5-5.7,2.1c-0.7,0.2-1.6,0.1-1.8-0.9C104.9,75.2,104.9,75,105.1,74.9L105.1,74.9z"/>
	<path id="path199" class="st0" d="M25.7,79.9c0,0.1,0,0.2,0,0.3c-1.3,0-2.6,0-3.9,0c-0.7,0.2-1.4,0.6-2-0.3c-0.4-0.5-1-0.5-1.6-0.4
		c-0.4,0-1,0.1-1-0.4c0.1-1.7-1.1-0.5-1.7-0.8c-0.2-0.7-0.7-1.2-1.4-1.4c0-0.1,0-0.2,0-0.3c1.5-0.3,2.8,0.3,4,0.9
		C20.5,78.7,23.3,78.8,25.7,79.9L25.7,79.9z"/>
	<path id="path201" class="st0" d="M125.2,75.9c-0.4,0.1-0.7,0.2-1.1,0.3c-0.2-0.2-0.4-0.5-0.7-0.7c1-1.5,1.9-2.9,3.9-3.2
		C126.6,73.6,125.9,74.8,125.2,75.9z"/>
	<path id="path203" class="st0" d="M74.1,2.2c-1-0.1-1.9-0.3-2.9,0c-0.2-0.1-0.5,0-0.7-0.3c-0.1-0.2-0.2-0.4-0.3-0.6
		C71.5,1.2,73,1.1,74.1,2.2z"/>
	<path id="path205" class="st0" d="M70.5,1.9c0.2,0.1,0.4,0.2,0.7,0.3c-1.6,2-3.4,0.3-5.1,0.3C67.5,1.9,69.1,2.7,70.5,1.9z"/>
	<path id="path207" class="st0" d="M105.1,75.2c0.3,0.1,0.7,0.4,1,0.3c2-0.8,4.4-0.9,6.1-2.4c1.2-1,2.3-1.7,3.8-1.7
		c0.9,0,1.7-0.3,0.7-1.3c-0.7-0.7,0-1.3,0-1.9c0-0.2,0.1-0.5,0.1-0.7c0-0.7,0-1.4,0.9-1.7c0.4-0.1,0.9-0.1,1.1,0.2
		c0.7,0.8-0.4,1.2-0.5,1.9c1.4,0.1,2.8,0.6,4.2-0.1c0.4-0.2,1.2-0.3,0.2-1c-0.7-0.5,0.1-1,0.5-1.3c0.4-0.3,1-0.3,1.5-0.4
		c-0.1-0.6-1-0.8-0.6-1.5c0.9,0.1,1.9-0.2,2.5,0.7c0.5,0.8,0,4-0.8,4.4c-1,0.6-1.5,1.6-2.4,2.2c-2.3-0.5-4.1,0-5.3,2.2
		c-0.4,0.7-0.9,0.8-1.6,0.5c-0.5-0.2-1-0.3-1.6,0.1c1.5,0.3,1.5,1.2,1.1,2.2c-0.2,0.5-0.6,0.6-1.1,0.7c-1.2,0.2-2.4,0.7-3.4,1.5
		c-0.7,0.6-1.4,0.6-2.2,0.6c-0.8,0.4-0.8,0.4-1.2-0.3c-0.1-0.1-0.3-0.3-0.3-0.3c-1.6,0.8-3.5-0.7-5.2,0.8c-1,0.9-2.7,0.8-4.2,0.8
		c-0.6-0.1-1.2-0.3-1.7-0.4c0.1-0.9,0.7-0.6,1.2-0.5c2.5,0.6,4.2-0.7,6.2-2.3c-1.1-0.2-1.9-0.2-2.7,0.1c-0.6,0.3-1,0.2-1.2-0.5
		c0.5-0.4,0.9-0.7,1.4-1.1C102.7,74.7,103.9,75.1,105.1,75.2L105.1,75.2z"/>
	<path id="path209" class="st0" d="M88.5,38.9c0.5-0.1,0.9-0.7,1.4-0.3c0.4,0.4-0.1,0.7-0.4,1C89.1,39.5,88.7,39.3,88.5,38.9z"/>
	<path id="path211" class="st0" d="M123.4,74.5c-1.2-0.1-2.4-1.1-3.5,0.1c-0.3-0.1-0.7-0.1-0.8-0.2c-0.3-0.4,0.2-0.6,0.5-0.8
		c0.7-0.3,1.4-0.5,2.2-0.7c0.5-0.7,1.5-0.2,2.1-0.7c0.6-0.5,1.2-0.9,2-1.6C125.7,72.5,123.5,72.9,123.4,74.5L123.4,74.5z"/>
	<path id="path213" class="st0" d="M123.8,72.1c-0.5,0.7-1.3,0.7-2.1,0.7c-0.4-0.1-0.9,0-1.4-0.5c1.2-0.5,2.5,0,3.5-0.6
		C123.8,71.8,123.8,72,123.8,72.1L123.8,72.1z"/>
	<path id="path215" class="st0" d="M124.5,63.2c-0.4,0-0.7-0.1-0.7-0.4c0-0.5,0.5-0.6,0.9-0.7c0.3-0.1,0.6,0.1,0.6,0.4
		C125.2,63,124.8,63.1,124.5,63.2L124.5,63.2z"/>
	<path id="path217" class="st0" d="M70.5,11c-0.6-1.1,0.4-0.5,0.7-0.7c2.2,1.7,4.5,1.8,7,0.9c0.6-0.2,1.5-0.3,1.5,0.6
		c0,0.9-0.9,1.2-1.7,1.2C75.4,12.9,72.7,12.8,70.5,11z"/>
	<path id="path219" class="st0" d="M65.6,10.3c-0.2-0.1-0.5-0.2-0.7-0.4c1.1-0.5,2.1-0.3,3.3,0.1C67.2,10.5,66.4,10.5,65.6,10.3z"/>
	<path id="path221" class="st0" d="M107.1,81c0.3,0.5-0.4,0.6-0.4,1.2c0.8,0.1,1.7-0.9,2.4,0.3c0.1,0.2,0.4,0,0.5-0.3
		c0.4-1.6,1.8-1.5,3-1.7c0.6,0.5-1.1,1.2,0.2,1.7c0.3,0.1-0.4,0.4-0.6,0.4c-1.4,0.1-2.6,0.5-3.8,1.3c-0.5,0.4-1.1,0.4-1.7,0.2
		c-1.8-0.5-3.5,0.1-5.3,0.5c-1.2,0.3-2.5,0.4-2.9-1.3c-0.2-0.7,0-1.4,0.8-1.2c1.6,0.3,3.1-0.9,4.8,0C105.2,82.6,106.1,81.2,107.1,81
		L107.1,81z"/>
	<path id="path223" class="st0" d="M49.7,86.8c-0.2-0.3-0.7-0.3-0.6-0.7c0.1-0.3,0.5-0.2,0.8-0.2c2.3,0.4,4.5,0.4,6.5-1
		c0.7-0.5,1.7-0.7,2.5-0.7c1.1,0,2-0.3,2.8-1.2c0.5-0.6,1.3-0.7,2.1-0.8c1.1-1,1.8-2.4,3.6-2.4c1.1-0.1,2.1-0.2,3.2-0.3
		c0.6,0.6,0.9,1.2,0,1.8c-3-0.1-5.5,1.1-8,2.5C58.5,86,54.5,87.8,49.7,86.8L49.7,86.8z"/>
	<path id="path225" class="st0" d="M102.9,86.6c-0.6,0-1.1,0-1.7,0c-3.1-0.1-6.1-0.3-9.2-0.9c-2.4-0.5-5.1-0.1-7.4-1.5
		c-0.4-0.2-1.3-0.1-1-0.9c0.2-0.7,1-0.4,1.5-0.2c1.4,0.5,2.8,1.1,4.4,1c0.8,0.4,1.7-0.2,2.5,0.4c3.5,1.1,7.2,1.2,10.8,1.1
		c0.9,0,1.9,0.5,3.2,0.2C105,86.9,103.9,86.3,102.9,86.6z"/>
	<path id="path227" class="st0" d="M70.1,74.5c1.3,0.4,2.5,1.4,4,0.6c0.5-0.3,1.2,0.1,1.3,0.6c0.3,1.2,1.4,1.6,2.1,2.4
		c-0.1,0.2-0.2,0.5-0.3,0.7c-1.1,0.4-1.8-0.4-2.5-1s-1.4-1.2-2.4-1.1c-2.2-0.3-4.4-1-6.7-0.5c-0.2-0.1-0.3-0.3-0.3-0.5
		c0.2-1.5,1.6-1.3,2.6-1.5C68.5,74.2,69.4,74.2,70.1,74.5z"/>
	<path id="path229" class="st0" d="M70.5,81.2c-0.3-0.6-0.1-1.2,0-1.8c1.1-0.1,2.1,0,3,0.6c0.9,0.6,1.9,0.6,2.9,0.6
		c1.1,0,1.6,0.5,1.3,1.7c-0.2,1.1-0.7,1.5-1.7,1.1C74.2,82.6,72.1,82.6,70.5,81.2z"/>
	<path id="path231" class="st0" d="M67.3,79.8c-0.8,1.4-1.9,2.3-3.6,2.4c-0.1-0.7-0.5-0.8-1.1-0.6c-0.7,0.2-0.8-0.1-0.7-0.7
		c0.1-0.5,0-1.2,0.9-0.8c1.8,0.7,1.9-0.3,1.6-1.6c1.6,0.1,3-1.1,4.5-1.1c0.9,0.7,0.4,1-0.3,1.3C68.2,78.9,67.4,78.9,67.3,79.8
		L67.3,79.8z"/>
	<path id="path233" class="st0" d="M37.7,86.9c-0.8-0.9,0.2-0.7,0.5-0.7c2.4-0.2,4.6-1.5,7.1-0.8c0.5,0.1,0.9-0.5,1.5-0.2
		c0.2,0.6-0.3,0.9-0.6,1.4C43.3,86.1,40.5,87.1,37.7,86.9L37.7,86.9z"/>
	<path id="path235" class="st0" d="M109.3,78.7c2.2-1.1,4.1-2.8,6.7-2.8c0.9,0.6,0.8,1.2-0.2,1.3c-1.8,0.1-3.2,0.8-4.6,1.8
		C110.5,79.5,109.9,79.1,109.3,78.7L109.3,78.7z"/>
	<path id="path237" class="st0" d="M92,84.4c-0.9,0.1-1.7,0.1-2.5-0.4C90.4,84,91.3,83.6,92,84.4z"/>
	<path id="path239" class="st0" d="M59.6,79.1c-0.2,0.2-0.4,0.5-0.7,0.6c-4.4,1.3-8.4,4.1-13.1,3.5c-2.6-0.3-5.2-0.7-7.8-0.9
		c-1.4-0.1-2.8,0.6-4.1-0.3h0c1.5-0.9,3.3-0.8,4.9-1.1l0,0c2.1,0,4.2-0.1,6.2,0.4c3,0.6,5.9-0.1,8.7-1.3c1.7-0.7,3.4-1.4,5.2-1.8
		C59.2,78.4,59.5,78.7,59.6,79.1L59.6,79.1z"/>
	<path id="path241" class="st0" d="M59.6,79.1c-0.2-0.1-0.5-0.2-0.7-0.4c-0.5-1.2,0.5-1.4,1.2-1.9c1.3-1,2.9-1.1,4.4-1.6
		c0.5-0.2,0.9,0.2,1.1,0.6c0,0.1,0,0.2-0.1,0.4C63.8,77.6,61.4,77.9,59.6,79.1L59.6,79.1z"/>
	<path id="path243" class="st0" d="M65.6,75.9c-2.2,1-5.1,0.5-6.7,2.9c-2.3,0.7-4.7,1.2-6.8,2.7c-1.6,1.1-3.6,1-5.5,0.8
		c-2.6-0.2-5.4-0.2-7.9-1.4c1.6-1,3.1-1.6,5.1-1.1c1.1,0.3,2.3,0.3,3.3-0.5c1.8-0.6,3.4,0.9,5.3,0.5c1.5-0.3,3-0.6,4.3-1.5
		c2.3-1.8,5-2.8,7.5-4.1c1.2-0.6,2.6,0.1,3.8-0.3c0.7,0.1,1.4,0.2,2.1,0.4c0,0.1,0,0.2,0,0.3C68.5,74.7,66.8,74.4,65.6,75.9
		L65.6,75.9z"/>
	<path id="path245" class="st0" d="M53.9,76.6c1-0.2,1.9-0.4,2.9-0.6c0.3-0.1,0.6-0.1,0.8,0.2c0.2,0.3-0.1,0.5-0.3,0.7
		c-1.7,1.8-4.7,2.4-7.2,1.4C51.1,77.2,52.9,77.8,53.9,76.6C53.9,76.6,53.9,76.6,53.9,76.6z"/>
	<path id="path247" class="st0" d="M38.8,80.9c-1.6,0.7-3.2,0.9-4.9,1.1C35.2,80.4,37,80.6,38.8,80.9z"/>
	<path id="path249" class="st0" d="M92.3,81.5c-0.1,0.4-0.4,0.4-0.7,0.4c-0.3,0-0.6-0.2-0.6-0.5c0-0.4,0.3-0.4,0.6-0.4
		C92,81,92.3,81.1,92.3,81.5z"/>
	<path id="path251" class="st0" d="M105.1,75.2c-1.2,0-2.4,0-3.5,0c1.1-1.1,2.4-0.1,3.5-0.3C105.1,75,105.1,75.1,105.1,75.2
		L105.1,75.2z"/>
</g>
</svg>
