<?xml version="1.0" encoding="utf-8"?>
<!-- Generator: Adobe Illustrator 23.0.2, SVG Export Plug-In . SVG Version: 6.00 Build 0)  -->
<svg version="1.1" id="Layer_1" xmlns="http://www.w3.org/2000/svg" xmlns:xlink="http://www.w3.org/1999/xlink" x="0px" y="0px"
	 viewBox="0 0 1142 397" style="enable-background:new 0 0 1142 397;" xml:space="preserve">
<g>
	<path d="M85.3,269.1c5.4,9.2,12.1,17.5,19.7,25.2c-0.3,0.4-0.7,0.7-1,1c-3.7-2.9-7.4-5.6-10.9-8.6c-12.8-10.8-25.5-21.8-38.5-32.4
		c-6.2-5-13.3-8.9-19.5-13.9c-3.9-3.2-6.5-7.9-10.3-11.3c-5.3-4.8-11.5-8.7-16.6-13.6c-4.2-4-7-8.9-5.4-15.5c0.9-3.8-0.4-8.1,0.3-12
		c1-5.4,4-9.6,9.8-11.8c3.5-1.3,6.6-4,9.4-6.7c9.8-9.4,21.9-14.5,34-19.7c10.6-4.5,21.4-8.6,32-13.1c2.4-1,4.4-2.9,6.8-4
		c10.9-5,21.5-10.6,32.7-14.6c13.7-5,27.7-9.1,41.7-13c21.5-6,43.1-11.6,64.6-17.2c12.4-3.2,24.7-6.6,37.2-9.2
		c20.7-4.3,41.5-8,62.3-11.9c17.6-3.3,35.3-4.9,53.2-5.2c12.7-0.2,25.4-2.3,38-2.5c16.3-0.3,32.7,0.4,49.1,0.7c2,0,4,0,6,0.1
		c10.6,0.6,21.3,2.1,31.9,1.6c6.6-0.3,13.2-3.3,19.7-5.6c8.1-2.8,16.3-5.7,24.1-9.2c9.5-4.3,18.7-9.4,28.1-14
		c5.3-2.6,10.9-4.8,16.2-7.4c5.8-2.9,11.4-6.3,17.3-9.1c7.1-3.4,14.2-7.1,21.8-9.3c3.7-1.1,7.8-0.5,10.5-4c0.2-0.3,0.9-0.4,1.3-0.4
		C657,2.6,663.2,3,669.4,3c8.6,0,15.6,3.8,22.5,8.3c4,2.6,8.7,4.3,12.5,7c7.2,5.2,16.2,7.8,21.4,15.8c2,3.1,4.1,6.4,6.9,8.7
		c6.8,5.8,9.7,14,14.3,21.2c0.9,1.4,0.7,3.5,1.1,5.2c0.8,3,1.2,6.2,2.7,8.8c3.9,6.8,3.5,14.2,2.4,21.3c-1.1,6.8-8.2,7.8-13.6,9.7
		c-7.5,2.7-15.3,4.7-23,7.1c-1.3,0.4-2.3,1.7-3.5,2.6c1.1,0.8,2.1,1.9,3.3,2.2c8.8,2.4,17.7,4.8,26.6,6.9c12.9,3.2,25.8,6,38.7,9.2
		c9.1,2.3,18.1,4.8,27.1,7.2c17.1,4.6,34.4,8.4,52.1,7.5c13-0.7,26.2-1.2,38.6-6.5c12.3-5.2,24.7-10.3,37.1-15.2
		c11-4.4,22.3-8.3,33.3-12.7c7.8-3.1,15.3-6.8,23-9.9c7.5-3.1,15.2-5.8,22.8-8.9c10.2-4.2,20.3-8.8,30.7-12.7
		c8.1-3.1,16.3-5.4,24.6-7.9c6.4-1.9,12.9-3.8,19.4-5.1c6.7-1.3,13.6-1.8,20.4-2.9c6.8-1.1,13.6-2.1,20.1-4.1
		c3.9-1.2,7.7-0.8,9.4,1.7c1.6,2.4,1.7,6.7,0.8,9.7c-3.3,10.7-9.8,19.5-17.3,27.7c-1.4,1.5-1.7,3.9-2.9,5.6
		c-2.4,3.6-5.1,6.9-7.4,10.6c-1.4,2.3-2,5-3.3,7.3c-3.3,5.8-6.8,11.5-10.3,17.2c-1.6,2.7-3.1,5.4-4.9,7.9c-3.5,4.7-7.5,9.2-10.9,14
		c-3.9,5.6-7.3,11.4-11,17.1c-1,1.6-2.1,3.2-3.4,4.6c-3.2,3.4-3.9,12.2-0.6,16.2c2.9,3.5,6.7,6.3,9.7,9.6c3.2,3.4,5.7,7.6,9.1,10.8
		c6,5.7,12.3,11.1,18.7,16.2c9.8,7.8,16.8,17.7,22.3,28.6c2.9,5.8,4.4,12.3,6.1,18.6c1.9,7.2,3.9,14.5,4.8,21.9
		c0.8,6.5-2.4,8.3-8.7,6.6c-12.6-3.4-25.3-6.2-37.8-9.8c-13.4-3.9-26.7-8.4-40.1-12.7c-8.4-2.7-16.8-5.3-25.1-8.2
		c-9.9-3.4-19.7-6.9-29.5-10.6c-9.6-3.7-19.1-7.6-28.5-11.7c-8.8-3.8-17.5-7.8-26.1-12.1c-8-4-15.4-9.3-23.6-12.5
		c-9.4-3.6-19.4-5.5-29.1-8.1c-17.5-4.6-35.3-3-53-2.9c-6.8,0.1-13.7,1.9-20.5,2.9c-2.6,0.4-5.1,0.9-8.3,1.4c0.5,1.4,0.7,3,1.5,3.9
		c3.4,3.6,6.6,7.7,10.7,10.1c4.3,2.5,4.9,6.1,6.3,9.9c3,8.6,1.1,15.8-4.7,22.8c-5.2,6.4-11.9,10.5-18.3,15.4
		c-6.5,5-11.8,11.5-17.7,17.3c-3.8,3.7-7.5,7.5-11.8,10.6c-5.3,4-10.7,8.1-17.6,8.9c-3.1,7-11,8.2-15.9,13c-1.9,1.9-4,4.4-6.4,5
		c-6.7,1.7-9.9,7-14.5,11.2c-6.2,5.8-12.8,11.3-22.5,11.6c-11.1,0.4-22-1.2-32.6-3.6c-10-2.3-19.5-7.4-29-11.9
		c-13-6.2-26-12.6-38.7-19.4c-12.1-6.5-23.7-14-35.7-20.7c-5.4-3-11.1-5.6-17-7.3c-3.1-0.9-6.9,0.1-10.2,0.9
		c-10.5,2.5-20.9,5.2-31.3,7.9c-1.2,0.3-2.3,1.5-3.4,2.3c1,0.8,2,2.2,3.1,2.4c7,1.2,13.9,2.2,20.9,3c2.6,0.3,3.7,0.9,4.1,3.8
		c0.6,4.6,3,9.2,2.6,13.6c-0.8,8.5-1,17.9-11.1,22c-0.8,0.3-1.8,1.9-1.6,2.7c0.9,4.5-1.5,6.9-4.6,9.4c-1.9,1.5-2.8,4.4-4.7,6.1
		c-1.8,1.6-4.1,3.1-6.5,3.6c-2.9,0.6-5.5,0.4-5.5,4.6c0,1.2-1.9,3.4-2.9,3.3c-4.6,0-9.3-0.2-13.7-1.4c-3.4-0.9-6.3-3.5-9.5-4.9
		c-1.4-0.6-3.3-0.5-4.9-0.3c-2.7,0.4-5.6,0.8-8,2c-10.5,5.1-17.9-0.1-25.1-6.9c-6.8-6.5-14-12.7-20.7-19.3
		c-4.6-4.5-8.4-10-13.2-14.4c-5.5-5.1-11.7-9.4-17.7-14c-3-2.3-5.9-4.8-9.2-6.5c-2.8-1.5-6-2.7-9.1-3c-7.6-0.7-15.2-0.5-22.8-1.2
		c-7.3-0.7-14.6-2-21.8-3c-7.3-1-14.6-1.8-21.9-3c-13-2-26-3.9-38.9-6.3c-12.2-2.3-24.4-4.8-36.5-7.7c-16.9-4-33.6-8.7-50.4-12.6
		c-7.5-1.7-15.3-2-22.9-3.4c-8.5-1.6-16.5-4.4-24.2-8.8c-6.9-3.9-14.6-6.4-22.1-9.1c-5-1.9-10.2-3.1-15.3-4.6
		C86.4,268.1,85.9,268.6,85.3,269.1z"/>
</g>
</svg>
