<?xml version="1.0" encoding="utf-8"?>
<!-- Generator: Adobe Illustrator 23.0.2, SVG Export Plug-In . SVG Version: 6.00 Build 0)  -->
<svg version="1.1" id="Layer_1" xmlns:svg="http://www.w3.org/2000/svg"
	 xmlns="http://www.w3.org/2000/svg" xmlns:xlink="http://www.w3.org/1999/xlink" x="0px" y="0px" viewBox="0 0 534.59 285.8"
	 style="enable-background:new 0 0 534.59 285.8;" xml:space="preserve">
<g id="g5">
	<path id="path7" d="M529.4,99l-2.1-2.4c0,0,0.8-2.6,1.2-6.2c2.4-6.6,2.2-13.9,1.9-21.2c0-0.1-0.4-0.3-0.6-0.4
		c-2.1,1.4-4.1,2.8-5.4,3.7c-0.5-1.7-1-3.2-1.4-4.8c-0.2-2.2-0.9-5.2-2.7-8.8c-0.3-1.1-0.7-2.3-1-3.5c8.6,0.2,12.2-2.7,12.7-6.7
		c1.2-2.6,1.6-5.5,0.3-6.5c-1.7-1.3-3.4-4.6-6.7-6.9c-2.9-2.8-6.4-5.2-9.9-6.3c2.2-7,8.6-5.7,13.3-7.8c-1.7-0.4-3.5-0.7-5.8-1.2
		c2.4-3.5,4.4-6.4,6.5-9.4c-3.6-1.9-5-1-9.3,5.8c-0.4-2.1-0.8-3.8-1.2-5.5c-0.3,0-0.5,0-0.8,0c-0.3,3.5-0.6,7-1,10.5
		c-0.3,0-0.5-0.1-0.8-0.1c-0.5-2.4-0.9-4.9-1.3-7.3c-0.5,0-1,0.1-1.6,0.1c-1.7,5.1-1.1,11.5-5.4,15.2c-3.7-2.9-2.2-5.3-1.5-10
		c-4,3.4-3.3,12.5-9.1,11.4c-8.3-1.5-17.7-1.6-24.4-7.2c0,1,0,2.1,0,3.9c-9-2.1-16.4-10.1-25.5-9.5c5.7,3.2,11,4.6,16,8.6
		c-6.7,1.7-11.9,4.5-17.3-0.2C411.9,15,375.8,5.6,339.5,0c-0.1,0.5-0.1,1-0.2,1.5c9.6,1.8,19.5,2.4,27.7,8.3
		c-9.5-2-18.4-6.7-28.4-6.2c-0.1,0.4-0.2,0.8-0.3,1.2c6.7,1.9,13.3,3.7,20,5.6c-0.1,0.6-0.2,1.1-0.3,1.7c-18.2-1.7-36.5-9-55-5.2
		c-7.8,7.8-22.9,1.9-33.4,3.4c-12.4,1-23.5-5.6-35.1-6.4c0,0.4-0.1,0.7-0.1,1.1c3.3,1.2,6.7,2.4,10.4,3.8c-4.6,2.3-9.6-0.1-13,3.8
		c19.3-2.4,38,8.2,52,20.6c0.9,0,0,0,2.6,0c-10.4,9.5-11.8,14.3-16,27.3c-34.2,14.6-58.7,22-95.2,35.7c-1.6,1.1-8.4,4.2-8.2,4.6
		c-5.6,4.9-10,8.6-13.6,11.9c-0.6,0.6-1,1.4-1.8,1.7c-26.7,10.6-2.1,2.1-3.1,3.1c-6.8,7.4-10.4,15.3-16.1,35
		c-2.3,8,0.4,21.6,3.2,26.1c1.6,2.5,2.9,3.5,3.7,4c3,2.3,24.1,4.2,30.3,4.6c-6,4.3-10.4,8.7-16.4,13.1c-16.8,7-33.6,16.2-51.4,20.9
		c0.5,2.9,1.1,5.3,1.1,7.7c1.5,0.6,2.8,1.1,4,1.4c5.3-6.2,16.2-5.5,23.2-10.4c-0.3,1-0.6,2.1-1.1,3.4c7.2-4,14-7.8,21.5-12.1
		c0.4,2.3,0.6,3.5,0.7,3.9c12.8-7,26.6-11.1,41.3-12.5v0.1c1.8,0,1.4-0.9,4-0.9c-0.6-0.6,1.7-0.4,1.1-1.1c1.7-0.1,2.4-0.3,2.8-0.1
		c5,2.9,14.2,1.4,16.1-4c-0.3-3.5,1.7-3.9,4.3-4c10.3-0.6,15.4-0.3,22.7-1.8c4.6-0.9,21.4-10.3,37.9-14.8c4.4-1.2,16,9.1,29.6,7
		c27.8-4.2,31.4,0.2,31,0.5c-1.9,5.6,3.6,5.2,3.5,8.1c0.2,2.8-0.4,5.9,0.6,8.4c11.8,26.5,23.2,54.7,33.7,80.9
		c4.2,6,9.5,5.5,15.2,3.7c0.4-1,0.9-1.9,1.4-2.8c-2.1-3.4-3.9-6.7-5.6-10.1c-0.5-0.3-1.1-0.7-1.7-1.4C375.4,247.1,368.2,219,355,195
		c3.8-4.4,7.4-8.5,11-12.5c0.4,0.2,0.7,0.3,1.1,0.5c-0.1,2.2-0.2,4.4-0.4,6.7c0.2,0.1,0.4,0.2,0.6,0.4c1.8-3.3,3.7-6.6,5.9-10.4
		c0.6,1.7,1.1,2.8,1.6,4.4c3.9-4,6.5-1.2,8.7,1.5c7.2,11.2,16.7,20.5,24.9,30.9c0.5,0.7,1,2,1.5,2c7.6,0.7,10.1,8.3,15.7,11.5
		c11.5,10.2,23.7-2,25.3,10.4c2.6,7.5,11.6,11.7,7.4,21.6c1.6,2.8,3.3,4.8,5.6,6.6c9.2,0.7,13.2,18.1,23.4,8.8
		c-2.1-1.1-4-2.9-5.8-2.9c-4.2,0.1-5.7-2.2-7.1-5.4c-1.6-3.9,2-4,3.7-6.4c-2.4-0.2-4.9-0.3-7.6-0.5c6.3-21.4-12.5-13.6-7.9-21.2
		c1.7-1.9,3.8-4.7-0.3-6.2c-3-1.1-3.9-2.7-3.8-5.7c-2.7-21.5-12.3-40.9-13-63.1c0.7,0.4,1.2,0.7,1.4,0.8c1.4-15.2,8-29.6,9.5-44.7
		c-0.3-4.5-0.2-4.6,4.4-4c0.2,0.1,0.3,0.1,0.5,0.2l0.5,5.1c0,0,11.7,8.2,20.6,7.8c1.7,2.5,3,4.2,3.8,5.4c3.5,0.5,6.1,0.9,10,1.4
		c-0.1-0.1-0.2-0.2-0.3-0.4l4.3,2.3c-1,0.7-1.4,1.6-0.3,3.2c5.4-1,15.4-2.5,20.8-7c1.9-1.1,3.6-2.4,4.6-4.1c5-7.9,4.7-21.4,4.7-21.4
		l4-5C534.7,105.6,536,102.7,529.4,99L529.4,99z M290,20.7c-4.7-3.2-10.1-5.4-15.1-7.9c11.6-1.3,21.5,1.8,28.2,9.2
		C298.1,23.5,294.2,23.6,290,20.7L290,20.7z M322.3,16.2c-6.6-1-13.1-2.7-19.4-4c5.2-4.1,19.7-3,30.2,3.5
		C329.5,15.9,325.8,16.7,322.3,16.2L322.3,16.2z M440.5,226.1c-2.1,0.2-4.1,1.1-6.6,1.7c-2.1-2.3-2.8-7.2-8.5-5.6
		c0.4-1.9,0.6-3.2,0.8-4.4c-5.4-5.5-10.8-10.9-16.7-16.8c-9.3,1.9-3.6-7.8-8.1-12.6c-8.3-4.2-9.2-17.6,2.3-14
		c-1.7-2.7,3.3-4.8,0-7.5c3.2-3.9,6.5,0.3,10.6,1.5c-0.1-9.7,2.2-22.7,12.8-25.6c2.1,5.9,3.3,12.9,0,18.8c3.7,11,2.3,21.3-0.8,32.4
		c-0.1,0.4,0.2,0.8,0.7,0.8c9.1,0.3,5.8,10.6,10.3,16.1C438.5,215.3,448.7,224.4,440.5,226.1L440.5,226.1z M497.5,111.9
		c-9.1,16.2-49.8,0.8-56.1-8.3S421.6,83.1,439,59c0,0,12.6-11.1,26.9-4.7c14.2,6.3,28,16.6,30.4,21.7
		C498.7,81.1,506.6,95.7,497.5,111.9z"/>
	<path id="path9" d="M288.6,30.4c-2.6,0-5.2,0-7.8,0c1.1,0.9,2.1,1.8,3.2,2.8c-9.5,2.2-20.2-1.7-26.5,3.8c-0.4,1.1-2.7,2.5-3.7,2.2
		c-27.4-1.2-53.3,13.5-80.2,18.5c-48.8,6.5-94.5,24-141.2,38.1C23.6,104,1.5,103.8,0,114c39.7,25.2,129.6-16.2,175.7-18.3
		c0,0.1-0.1,0.2-0.3,0.3c36.5-13.6,79.1-11.5,113.2-26.1C283,58.7,294.3,41.7,288.6,30.4L288.6,30.4z"/>
	<path id="path11" d="M438.9,59c0,0,12.6-11.1,26.9-4.7C480,60.6,494,70.9,496.4,76c2.4,5.1,10.1,19.8,1,35.9
		c-9.1,16.2-49.8,0.8-56.1-8.3C434.9,94.5,421.5,83.1,438.9,59L438.9,59z"/>
	<path id="path13" d="M440.9,63.7c0,0,3.6-6.9,14.9-6.7s30,14.6,32.7,17.4c2.6,2.8,7.7,10.1,9,16.2c1.2,6.1-1.5,13.4-4.7,15.6
		s-30,1-43-9.9C436.7,85.4,434.3,74.6,440.9,63.7z"/>
</g>
</svg>
