<?xml version="1.0" encoding="utf-8"?>
<!-- Generator: Adobe Illustrator 23.0.2, SVG Export Plug-In . SVG Version: 6.00 Build 0)  -->
<svg version="1.1" id="Layer_1" xmlns:svg="http://www.w3.org/2000/svg"
	 xmlns="http://www.w3.org/2000/svg" xmlns:xlink="http://www.w3.org/1999/xlink" x="0px" y="0px" viewBox="0 0 295.9 809.25"
	 style="enable-background:new 0 0 295.9 809.25;" xml:space="preserve">
<style type="text/css">
	.st0{fill-rule:evenodd;clip-rule:evenodd;}
</style>
<path id="path3" class="st0" d="M225.7,585.25l0.4,0.85l1.45,2.5c0.33,0.5,0.68,1.07,1.05,1.7c0.37,0.57,0.73,1.2,1.1,1.9l7.35,16.3
	l0.75,2.2c0.23,0.7,0.45,1.37,0.65,2c0.17,0.6,0.32,1.18,0.45,1.75l4.4,17.15l1.45,8.05l8.2,64.5l2.05,10.7
	c0.17,0.6,0.35,1.23,0.55,1.9l3.05,8.25l5.25,10.4l1.15,1.9c0.4,0.63,0.8,1.23,1.2,1.8l7.5,10.45l16.5,17.15
	c0.4,0.5,0.78,0.98,1.15,1.45c0.37,0.43,0.72,0.88,1.05,1.35c0.3,0.43,0.58,0.87,0.85,1.3c0.27,0.4,0.52,0.82,0.75,1.25
	c0.2,0.4,0.38,0.82,0.55,1.25c0.17,0.4,0.33,0.82,0.5,1.25c0.1,0.4,0.22,0.82,0.35,1.25c0.07,0.43,0.15,0.87,0.25,1.3
	c0.07,0.47,0.12,0.93,0.15,1.4c0.03,0.47,0.07,0.97,0.1,1.5l-0.6,15l-0.6,4.45l-0.25,1.15c-0.1,0.37-0.2,0.7-0.3,1
	c-0.13,0.3-0.25,0.6-0.35,0.9c-0.13,0.27-0.25,0.53-0.35,0.8c-0.3,0.47-0.6,0.92-0.9,1.35c-0.33,0.37-0.7,0.73-1.1,1.1
	c-0.43,0.33-0.87,0.65-1.3,0.95c-0.47,0.3-0.95,0.58-1.45,0.85l-0.75,0.4l-2.35,0.85c-0.53,0.13-1.05,0.25-1.55,0.35
	c-0.5,0.07-0.97,0.1-1.4,0.1c-0.23,0-0.53-0.05-0.9-0.15c-0.37-0.1-0.78-0.23-1.25-0.4c-0.5-0.17-1.02-0.35-1.55-0.55l-1.65-0.7
	l-2.8-1.6l-6.3-5.1c-0.53-0.43-1.02-0.8-1.45-1.1c-0.43-0.33-0.82-0.58-1.15-0.75c-0.33-0.2-0.57-0.3-0.7-0.3
	c-0.3,0-0.62-0.03-0.95-0.1c-0.37-0.1-0.73-0.23-1.1-0.4c-0.4-0.17-0.78-0.35-1.15-0.55c-0.4-0.2-0.8-0.43-1.2-0.7
	c-0.43-0.3-0.83-0.6-1.2-0.9c-0.4-0.3-0.78-0.62-1.15-0.95c-0.37-0.37-0.72-0.73-1.05-1.1c-0.33-0.37-0.62-0.73-0.85-1.1l-6.65-11.4
	c-0.57-1.07-1.08-2.03-1.55-2.9c-0.5-0.9-0.97-1.7-1.4-2.4c-0.43-0.7-0.87-1.32-1.3-1.85c-0.4-0.57-0.8-1.05-1.2-1.45
	c-0.4-0.43-0.8-0.8-1.2-1.1c-0.43-0.33-0.87-0.6-1.3-0.8c-0.47-0.23-0.95-0.45-1.45-0.65c-0.5-0.17-1.03-0.32-1.6-0.45
	c-0.6-0.17-1.22-0.37-1.85-0.6c-0.6-0.23-1.22-0.52-1.85-0.85c-0.67-0.33-1.3-0.68-1.9-1.05c-0.63-0.4-1.25-0.83-1.85-1.3
	c-0.6-0.43-1.17-0.88-1.7-1.35c-0.53-0.5-1.03-1-1.5-1.5c-0.5-0.5-0.93-1-1.3-1.5c-0.37-0.53-0.67-1.03-0.9-1.5
	c-0.2-0.33-0.35-0.7-0.45-1.1c-0.13-0.43-0.23-0.9-0.3-1.4c-0.1-0.5-0.17-1.03-0.2-1.6c-0.03-0.57-0.05-1.13-0.05-1.7
	c0-0.6,0.02-1.2,0.05-1.8c0.03-0.63,0.1-1.25,0.2-1.85c0.1-0.63,0.22-1.25,0.35-1.85c0.1-0.6,0.25-1.17,0.45-1.7
	c0.17-0.63,0.32-1.25,0.45-1.85c0.13-0.67,0.25-1.32,0.35-1.95c0.07-0.67,0.12-1.33,0.15-2c0.03-0.67,0.05-1.32,0.05-1.95
	c-0.03-0.7-0.07-1.37-0.1-2c-0.1-0.63-0.2-1.27-0.3-1.9c-0.1-0.6-0.23-1.18-0.4-1.75c-0.17-0.6-0.33-1.15-0.5-1.65l-3.3-9.5
	c-1.07-3.37-2.53-7.23-4.4-11.6c-1.9-4.4-4.18-9.27-6.85-14.6c-2.67-5.33-5.75-11.22-9.25-17.65c-3.53-6.43-7.47-13.37-11.8-20.8
	l-7.25-12.9l-5.6-12.55l-2.7-9.3l-0.6-3.35l-0.35-5.2l0.2-21.25l-9.3-15.35c-0.37-0.6-0.73-1.22-1.1-1.85
	c-0.37-0.67-0.73-1.35-1.1-2.05l-3.4-7l-5.45-13.55l-11.55-40.05c-0.53-1.83-1.07-3.62-1.6-5.35c-0.57-1.73-1.12-3.43-1.65-5.1
	s-1.08-3.3-1.65-4.9c-0.57-1.6-1.12-3.15-1.65-4.65c-0.57-1.53-1.12-3-1.65-4.4c-0.83-2.17-1.65-4.22-2.45-6.15
	c-0.8-1.93-1.6-3.75-2.4-5.45l-13.35-30.3c-0.33-0.63-0.58-1.03-0.75-1.2c-0.13-0.13-0.25-0.2-0.35-0.2c-0.07,0-0.12,0.02-0.15,0.05
	l-0.05,0.05l-0.05,0.1l-0.05,0.3c-0.07,0.23-0.13,0.58-0.2,1.05l-3.15,42.35l-0.1,14.85l2.7,31.5l-0.5,5.5l-3.1,15.95
	c-0.03,0.4-0.05,0.72-0.05,0.95l0.05,1.1l2.1,11.5l1.3,4.45c0.33,1,0.65,2.07,0.95,3.2c0.27,1.1,0.53,2.23,0.8,3.4
	c0.23,1.13,0.45,2.32,0.65,3.55c0.2,1.2,0.38,2.45,0.55,3.75c0.13,1.23,0.25,2.52,0.35,3.85c0.1,1.3,0.18,2.63,0.25,4
	c0.07,1.33,0.12,2.68,0.15,4.05c0,1.37-0.02,2.75-0.05,4.15c-0.03,1.4-0.08,2.8-0.15,4.2c-0.1,1.4-0.2,2.82-0.3,4.25
	c-0.13,1.4-0.28,2.82-0.45,4.25c-0.2,1.4-0.4,2.82-0.6,4.25c-0.23,1.23-0.42,2.68-0.55,4.35c-0.17,1.67-0.32,3.55-0.45,5.65
	c-0.07,1.37-0.13,2.85-0.2,4.45l-1.6,43.35l-1.45,19.85l8.95,30.95c0.2,0.8,0.38,1.55,0.55,2.25c0.17,0.7,0.3,1.38,0.4,2.05
	c0.1,0.63,0.17,1.23,0.2,1.8c0.03,0.57,0.03,1.12,0,1.65c-0.07,0.5-0.15,1-0.25,1.5c-0.1,0.47-0.23,0.92-0.4,1.35
	c-0.2,0.43-0.43,0.85-0.7,1.25c-0.3,0.4-0.62,0.8-0.95,1.2c-0.37,0.37-0.77,0.75-1.2,1.15c-0.43,0.37-0.92,0.73-1.45,1.1
	c-0.53,0.37-1.12,0.75-1.75,1.15c-0.63,0.4-1.3,0.8-2,1.2c-0.73,0.37-1.52,0.77-2.35,1.2l-11.05,5.85L98,756.3
	c-0.57,0.37-1.05,0.68-1.45,0.95c-0.37,0.27-0.63,0.5-0.8,0.7c-1.1,1.17-2.15,2.72-3.15,4.65c-0.5,0.93-0.98,1.97-1.45,3.1
	c-0.5,1.13-0.97,2.35-1.4,3.65c-0.37,1.07-0.75,2.07-1.15,3c-0.4,0.93-0.82,1.82-1.25,2.65c-0.43,0.8-0.88,1.55-1.35,2.25
	c-0.47,0.7-0.95,1.35-1.45,1.95c-1.03,1.2-2.13,2.18-3.3,2.95c-0.6,0.37-1.23,0.7-1.9,1c-0.63,0.3-1.3,0.53-2,0.7l-1.05,0.3l-4.7,2
	c-0.37,0.17-0.68,0.33-0.95,0.5c-0.3,0.17-0.65,0.35-1.05,0.55l-5.8,2.4l-6.55,2l-4.5-2.1c-0.83-0.4-1.58-0.78-2.25-1.15
	c-0.67-0.37-1.27-0.72-1.8-1.05c-0.57-0.37-1.05-0.72-1.45-1.05c-0.47-0.4-0.85-0.78-1.15-1.15c-0.33-0.37-0.62-0.75-0.85-1.15
	c-0.23-0.43-0.42-0.85-0.55-1.25c-0.13-0.47-0.23-0.95-0.3-1.45s-0.1-1.02-0.1-1.55l-0.1-6.75l0.5-5.9l1.75-8.4
	c0.1-0.3,0.2-0.57,0.3-0.8c1.5-3.13,4.42-5.72,8.75-7.75c0.33-0.17,0.67-0.35,1-0.55c0.37-0.2,0.73-0.42,1.1-0.65
	c0.33-0.23,0.68-0.48,1.05-0.75c0.37-0.3,0.73-0.58,1.1-0.85c0.37-0.33,0.73-0.65,1.1-0.95c0.37-0.33,0.73-0.68,1.1-1.05l2.15-2.25
	c0.37-0.4,0.72-0.8,1.05-1.2c0.33-0.43,0.67-0.85,1-1.25c0.3-0.43,0.62-0.87,0.95-1.3c0.3-0.43,0.58-0.87,0.85-1.3l2.45-4l0.15-0.35
	l0.05-0.05v-0.1l0.1-0.15l0.15-0.35l6.45-11.15c0.17-0.4,0.32-0.75,0.45-1.05c0.1-0.33,0.18-0.6,0.25-0.8
	c0.07-0.37,0.12-0.83,0.15-1.4c0-0.57-0.02-1.22-0.05-1.95c-0.03-0.77-0.08-1.58-0.15-2.45c-0.1-0.9-0.22-1.85-0.35-2.85
	c-0.13-1.03-0.28-2.08-0.45-3.15c-0.17-1.1-0.35-2.22-0.55-3.35c-0.23-1.17-0.47-2.33-0.7-3.5s-0.48-2.33-0.75-3.5l-12.4-50.65
	c-0.1-0.37-0.18-0.75-0.25-1.15l-0.4-2.5c-0.03-0.4-0.05-0.73-0.05-1c0-0.3-0.03-0.72-0.1-1.25l-1.4-6.5
	c-0.4-1.5-0.78-3.02-1.15-4.55c-0.4-1.53-0.75-3.05-1.05-4.55c-0.33-1.5-0.65-3.03-0.95-4.6c-0.33-1.6-0.63-3.2-0.9-4.8
	c-0.27-1.63-0.53-3.32-0.8-5.05s-0.52-3.53-0.75-5.4c-0.27-1.87-0.52-3.82-0.75-5.85c-0.27-2.03-0.52-4.15-0.75-6.35
	c-0.4-3.7-0.47-7.62-0.2-11.75c0.23-4.17,0.78-8.4,1.65-12.7l0.3-1.5l0.55-5.7l-0.05-0.9l-2.55-13.8c-0.3-1.67-0.62-3.28-0.95-4.85
	c-0.37-1.57-0.73-3.05-1.1-4.45c-0.4-1.43-0.8-2.8-1.2-4.1c-0.43-1.3-0.87-2.53-1.3-3.7l-18.9-54.4c-0.33-0.73-0.63-1.43-0.9-2.1
	c-0.3-0.67-0.58-1.27-0.85-1.8c-0.3-0.57-0.6-1.12-0.9-1.65c-0.33-0.5-0.65-0.98-0.95-1.45c-0.33-0.5-0.68-0.98-1.05-1.45
	c-0.37-0.5-0.75-0.98-1.15-1.45l-9.55-10.5c-0.43-0.53-0.85-1.05-1.25-1.55c-0.4-0.5-0.77-0.98-1.1-1.45c-0.33-0.5-0.67-1-1-1.5
	c-0.33-0.53-0.65-1.05-0.95-1.55c-0.3-0.53-0.58-1.08-0.85-1.65c-0.33-0.57-0.63-1.15-0.9-1.75l-5.5-10.9
	c-0.47-0.87-0.87-1.68-1.2-2.45c-0.37-0.77-0.67-1.47-0.9-2.1c-0.23-0.63-0.4-1.25-0.5-1.85c-0.13-0.63-0.2-1.22-0.2-1.75
	s0.05-1.08,0.15-1.65c0.13-0.57,0.32-1.12,0.55-1.65c0.2-0.53,0.48-1.1,0.85-1.7c0.33-0.63,0.73-1.27,1.2-1.9
	c0.2-0.33,0.42-0.7,0.65-1.1c0.2-0.4,0.42-0.83,0.65-1.3c0.23-0.5,0.47-1.02,0.7-1.55l3.85-12.3l1.7-9.9l0.35-9.9l-1.1-63.3
	c0.03-2.1,0.08-4.13,0.15-6.1c0.07-1.97,0.15-3.83,0.25-5.6c0.07-1.8,0.17-3.52,0.3-5.15c0.13-1.63,0.27-3.18,0.4-4.65
	c0.13-1.5,0.3-2.92,0.5-4.25c0.17-1.37,0.35-2.67,0.55-3.9c0.2-1.2,0.42-2.35,0.65-3.45c0.23-1.1,0.48-2.12,0.75-3.05
	c0.23-1,0.5-1.92,0.8-2.75c0.3-0.87,0.62-1.67,0.95-2.4l6.8-18l2.25-9.15l1.85-60.9l1.4-10.55c0.13-0.7,0.3-1.38,0.5-2.05
	c0.2-0.67,0.4-1.33,0.6-2c0.2-0.67,0.42-1.3,0.65-1.9c0.2-0.67,0.43-1.3,0.7-1.9c0.23-0.6,0.48-1.2,0.75-1.8s0.53-1.17,0.8-1.7
	c0.3-0.57,0.6-1.12,0.9-1.65c0.27-0.53,0.57-1.03,0.9-1.5c0.3-0.5,0.6-0.98,0.9-1.45c0.33-0.47,0.67-0.9,1-1.3
	c0.33-0.43,0.67-0.83,1-1.2c0.33-0.4,0.68-0.75,1.05-1.05c0.27-0.3,0.58-0.58,0.95-0.85c0.33-0.3,0.7-0.6,1.1-0.9l5.5-3.7l9.1-4.55
	c0.9-0.33,1.75-0.67,2.55-1c0.77-0.37,1.45-0.73,2.05-1.1c1.23-0.77,2.27-1.63,3.1-2.6c0.8-1.03,1.48-2.28,2.05-3.75
	c0.27-0.73,0.53-1.55,0.8-2.45c0.23-0.9,0.47-1.87,0.7-2.9l0.9-3.35c0.17-0.53,0.35-1.03,0.55-1.5c0.2-0.47,0.38-0.87,0.55-1.2
	c0.2-0.43,0.38-0.95,0.55-1.55c0.07-0.33,0.13-0.68,0.2-1.05c0.07-0.4,0.12-0.82,0.15-1.25l0.15-1.55l-0.5-18.05l-0.85-4.8
	L59.1,78.3l-0.3-2.35V72.5l4.9-33.35l2.1-4.8l1.45-2.4l5.55-7.3c0.43-0.53,0.87-1.03,1.3-1.5c0.43-0.5,0.88-0.97,1.35-1.4
	c0.43-0.47,0.9-0.92,1.4-1.35c0.5-0.47,1.02-0.92,1.55-1.35c0.5-0.43,1.05-0.87,1.65-1.3c0.57-0.43,1.17-0.87,1.8-1.3
	c0.63-0.43,1.3-0.88,2-1.35s1.45-0.93,2.25-1.4l20.15-10.85c0.6-0.33,1.27-0.62,2-0.85c0.7-0.3,1.43-0.55,2.2-0.75
	c0.77-0.2,1.55-0.38,2.35-0.55c0.8-0.17,1.63-0.3,2.5-0.4c0.83-0.1,1.67-0.17,2.5-0.2c0.87-0.07,1.73-0.1,2.6-0.1
	s1.72,0.03,2.55,0.1c0.83,0.03,1.67,0.1,2.5,0.2c0.8,0.1,1.6,0.23,2.4,0.4c0.73,0.17,1.47,0.37,2.2,0.6c0.7,0.2,1.37,0.43,2,0.7
	c0.6,0.27,1.18,0.57,1.75,0.9c0.37,0.2,0.77,0.47,1.2,0.8c0.43,0.3,0.88,0.63,1.35,1c0.43,0.33,0.88,0.72,1.35,1.15
	s0.97,0.88,1.5,1.35c0.47,0.47,0.97,0.97,1.5,1.5c0.5,0.53,1,1.08,1.5,1.65c0.5,0.53,1.02,1.12,1.55,1.75
	c0.53,0.57,1.05,1.17,1.55,1.8s1.02,1.28,1.55,1.95c0.5,0.63,1,1.28,1.5,1.95s0.98,1.35,1.45,2.05c0.47,0.67,0.93,1.35,1.4,2.05
	l10.45,16l4.95,9.2c0.17,0.27,0.33,0.58,0.5,0.95l2.85,9.1l1.55,8.5l0.75,42.45l0.95,11.5l4.1,19.25c0.13,0.63,0.28,1.2,0.45,1.7
	c0.13,0.47,0.28,0.9,0.45,1.3c0.17,0.37,0.37,0.72,0.6,1.05c0.2,0.3,0.47,0.58,0.8,0.85c0.3,0.27,0.65,0.55,1.05,0.85
	c0.43,0.27,0.93,0.57,1.5,0.9l1.9,1.05c0.93,0.5,1.82,1.02,2.65,1.55c0.83,0.5,1.6,1,2.3,1.5c0.73,0.5,1.43,1.05,2.1,1.65
	c0.67,0.53,1.32,1.12,1.95,1.75c0.6,0.63,1.22,1.32,1.85,2.05c0.6,0.7,1.22,1.48,1.85,2.35c0.6,0.8,1.23,1.7,1.9,2.7
	s1.35,2.07,2.05,3.2c0.7,1.13,1.37,2.25,2,3.35c0.6,1.07,1.17,2.1,1.7,3.1c0.5,1,0.97,2,1.4,3c0.43,0.97,0.83,1.95,1.2,2.95
	c0.33,0.97,0.65,1.95,0.95,2.95c0.27,1.03,0.52,2.07,0.75,3.1c0.23,1.07,0.43,2.17,0.6,3.3c0.2,1.13,0.37,2.33,0.5,3.6l2,21.4
	l0.15,8.5c0.03,4.4,0.17,8.73,0.4,13c0.2,4.23,0.52,8.37,0.95,12.4c0.4,4.03,0.9,8.03,1.5,12c0.6,3.93,1.32,7.78,2.15,11.55
	l3.65,21.45c0.07,0.53,0.15,1.17,0.25,1.9c0.07,0.73,0.13,1.58,0.2,2.55l-0.15,32.25c-0.1,1-0.18,1.92-0.25,2.75l-2.4,13.75
	l-6.65,24.95l-4.7,25.8c-0.07,0.3-0.1,0.6-0.1,0.9c-0.03,0.3-0.05,0.6-0.05,0.9c0,0.27,0.03,0.58,0.1,0.95
	c0.03,0.33,0.1,0.68,0.2,1.05l1.9,8l2.2,15.1l0.2,4.35c0,0.67,0,1.3,0,1.9c-0.03,0.63-0.07,1.22-0.1,1.75l-0.1,6.95
	c0,0.5,0.03,0.98,0.1,1.45c0.07,0.43,0.13,0.83,0.2,1.2c0.07,0.3,0.13,0.67,0.2,1.1l0.05,14.45l2,18.65l1.35,57.5l1.55,12.75
	l4.15,17.1L224.3,581L225.7,585.25L225.7,585.25z M174.6,258.4c-0.17,0.4-0.35,0.88-0.55,1.45l-4.55,14.45l-1.2,5.6l-0.3,3.15
	c-0.03,0.43-0.03,0.85,0,1.25c0,0.37,0.02,0.73,0.05,1.1c0.03,0.33,0.12,0.68,0.25,1.05c0.07,0.33,0.18,0.68,0.35,1.05
	c0.13,0.4,0.32,0.83,0.55,1.3l6.65,11.9l0.5,0.75c0.27,0.4,0.55,0.85,0.85,1.35c0.27,0.47,0.52,0.92,0.75,1.35
	c0.23,0.47,0.45,0.88,0.65,1.25c0.17,0.37,0.28,0.68,0.35,0.95c0.07,0.23,0.18,0.55,0.35,0.95l3.85,7.8l0.25-9.25L181.55,278
	c-0.13-0.87-0.27-1.7-0.4-2.5c-0.13-0.8-0.28-1.58-0.45-2.35c-0.17-0.77-0.33-1.53-0.5-2.3l-4-13.75l-0.15-0.35
	c-0.1-0.1-0.18-0.13-0.25-0.1c-0.1,0-0.2,0.07-0.3,0.2c-0.13,0.1-0.27,0.28-0.4,0.55C174.93,257.67,174.77,258,174.6,258.4z
	 M60.05,259.9c-0.17-0.8-0.33-1.3-0.5-1.5c-0.07-0.07-0.12-0.08-0.15-0.05h-0.1c-0.03,0.03-0.07,0.08-0.1,0.15l-0.15,0.3
	c-0.07,0.13-0.18,0.6-0.35,1.4l-5.8,27l-0.3,1.05l-0.35,2.05c-0.07,0.27-0.08,0.5-0.05,0.7c-0.03,0.37,0.02,0.62,0.15,0.75
	c0.03,0.03,0.1,0.07,0.2,0.1c0.03-0.03,0.1-0.07,0.2-0.1c0.2-0.1,0.43-0.3,0.7-0.6c0.27-0.3,0.57-0.7,0.9-1.2l2.1-3.95
	c1.4-3,2.45-6.1,3.15-9.3c0.67-3.2,0.98-6.45,0.95-9.75l-0.3-5.75C60.18,260.7,60.12,260.27,60.05,259.9L60.05,259.9z M49.9,767.7
	c0-0.11,0-0.22,0-0.32c-0.16,0.24-0.3,0.47-0.4,0.67c-0.23,0.37-0.38,0.7-0.45,1c-0.05,0.18-0.05,0.33,0,0.45
	c0.12-0.45,0.32-0.83,0.6-1.15c0.11-0.13,0.24-0.25,0.38-0.35C49.94,767.88,49.9,767.78,49.9,767.7z"/>
</svg>
