<?xml version="1.0" encoding="utf-8"?>
<!-- Generator: Adobe Illustrator 23.0.2, SVG Export Plug-In . SVG Version: 6.00 Build 0)  -->
<svg version="1.1" id="Layer_1" xmlns:svg="http://www.w3.org/2000/svg"
	 xmlns="http://www.w3.org/2000/svg" xmlns:xlink="http://www.w3.org/1999/xlink" x="0px" y="0px" viewBox="0 0 1719.38 698.64"
	 style="enable-background:new 0 0 1719.38 698.64;" xml:space="preserve">
<style type="text/css">
	.st0{stroke:#000000;stroke-width:3;stroke-miterlimit:10;}
	.st1{fill:none;}
</style>
<path id="path3" class="st0" d="M836.62,463.83c23.89-28.32,27-60.67,66-128.67s86-106,115-130s120-82,149-85s46-2,73-5
	s97-12,116-23s54.28-34,54.28-34s-14.56-17-7.28-29c7.28-12,13-26,28-27s33-3,40,13s11,24,11,24l23,3c0,0-4-9,0-18s16-19,26-16
	s27,11,32,25s9,35,9,35l43,18c0,0,19,5,39,27s43,51,50,65s18,22,13,33s-13,19.34-21,21.67s-23,21.33-56,19.33c-4.11-0.25-39,13-47,9
	c0,0-27-8-44-4s-17,12-9,17s21.67,15.12,28,7c13-16.67,45-22.33,55-13.33c1.57,1.41,11.92,11.59,11.33,14.67
	c-0.79,4.17-12.76,1.4-10.67,3.33c5.08,4.67,7.38,11.44,2.33,13.33c-8,3-14.33-4.67-14.33-4.67s-9.67-6.33-10.67,5.67
	s-3,19.33-12,20.33s-29,0.67-29,0.67s-30,19-62,23s-62,6-62,6l-37,17c0,0,16,21,26,32s31,30,35,40s9,70,9,70l-5-5l-2,5c0,0-8-1-11-6
	s-2.59-21.31-5-28c-1.34-3.72-9-13-9-13l3,32c0,0-16-23-18-28s-11.72-6-11.72-6l-5.28-12c0,0-18.73-16.88-26-21
	c-13.21-7.49-57-20.95-57-20.95s-81.57,18.32-96,39.95c-4.02,6.03,0,29,0,29l-8-6l-3,13l-4-6l-16,18l-5-6l-16,28c0,0-18,78-39,88
	s-3,26-3,26l53,37l30,5l28,9h-25.5l-4,6l-11.5-2.5l-18.5-1l-6,7l-11-2.5l-13.5-0.5l0.5,3l-17.5-2.5l-3,8.5l-13.5-5.5l-14.5-6.5
	l-3.5,7.5l-17-8.5c0,0-26-22-41.5-36.5s-25-34-24-36.5s-12.5,3-12.5,3l4-18c0,0-23.5,15.5-23.5,14s-1-15.5-1-15.5l-24,11l-3-17
	l-21.5,3.5l1-10.5l-28.5,7.5l-1-12l-30,9.5l-3-16.5l-28.5,10.5l4.5-22.5c0,0-25.5,8.5-22,7.5s10.5-17,10.5-17l-31,10l5.5-8
	c0,0-125,6-178-5s-274-71-294-80s-203-75-247-86s-85-21-89-23s-5-7.08-5-7.08s10-11.08,57,0s199,53.13,227,62.08
	c28,8.95,183,53,211,60c28,7,126,32,215,33c17.03,0.19,77-7,77-7S828.13,473.88,836.62,463.83z"/>
<path id="path5" class="st1" d="M1628.36,275.95"/>
</svg>
